<?xml version="1.0" encoding="utf-8" standalone="no"?>
<!DOCTYPE svg PUBLIC "-//W3C//DTD SVG 1.1//EN"
  "http://www.w3.org/Graphics/SVG/1.1/DTD/svg11.dtd">
<!-- Created with matplotlib (https://matplotlib.org/) -->
<svg height="237.6pt" version="1.1" viewBox="0 0 237.6 237.6" width="237.6pt" xmlns="http://www.w3.org/2000/svg" xmlns:xlink="http://www.w3.org/1999/xlink">
 <metadata>
  <rdf:RDF xmlns:cc="http://creativecommons.org/ns#" xmlns:dc="http://purl.org/dc/elements/1.1/" xmlns:rdf="http://www.w3.org/1999/02/22-rdf-syntax-ns#">
   <cc:Work>
    <dc:type rdf:resource="http://purl.org/dc/dcmitype/StillImage"/>
    <dc:date>2022-02-25T18:38:29.748708</dc:date>
    <dc:format>image/svg+xml</dc:format>
    <dc:creator>
     <cc:Agent>
      <dc:title>Matplotlib v3.3.4, https://matplotlib.org/</dc:title>
     </cc:Agent>
    </dc:creator>
   </cc:Work>
  </rdf:RDF>
 </metadata>
 <defs>
  <style type="text/css">*{stroke-linecap:butt;stroke-linejoin:round;}</style>
 </defs>
 <g id="figure_1">
  <g id="patch_1">
   <path d="M 0 237.6 
L 237.6 237.6 
L 237.6 0 
L 0 0 
z
" style="fill:#ffffff;"/>
  </g>
  <g id="axes_1">
   <g id="patch_2">
    <path d="M 38.021519 208.5451 
L 232.848975 208.5451 
L 232.848975 3.00024 
L 38.021519 3.00024 
z
" style="fill:#ffffff;"/>
   </g>
   <g id="matplotlib.axis_1">
    <g id="xtick_1">
     <g id="line2d_1">
      <defs>
       <path d="M 0 0 
L 0 3.5 
" id="m05cb7f5232" style="stroke:#000000;stroke-width:0.8;"/>
      </defs>
      <g>
       <use style="stroke:#000000;stroke-width:0.8;" x="46.877312" xlink:href="#m05cb7f5232" y="208.5451"/>
      </g>
     </g>
     <g id="text_1">
      <!-- 1 -->
      <g transform="translate(44.760221 221.079902)scale(0.08 -0.08)">
       <defs>
        <path d="M 28.40625 67 
L 26.5 67 
C 21.09375 61.5625 14.796875 60.78125 8.40625 60.78125 
L 8.40625 55 
C 11.296875 55 16 55 20.703125 57.296875 
L 20.703125 5.765625 
L 8.90625 5.765625 
L 8.90625 0 
L 40.203125 0 
L 40.203125 5.765625 
L 28.40625 5.765625 
z
" id="CMSS17-49"/>
       </defs>
       <use transform="scale(0.996264)" xlink:href="#CMSS17-49"/>
      </g>
     </g>
    </g>
    <g id="xtick_2">
     <g id="line2d_2">
      <g>
       <use style="stroke:#000000;stroke-width:0.8;" x="91.15628" xlink:href="#m05cb7f5232" y="208.5451"/>
      </g>
     </g>
     <g id="text_2">
      <!-- 10 -->
      <g transform="translate(86.922097 221.079902)scale(0.08 -0.08)">
       <defs>
        <path d="M 43.09375 31.9375 
C 43.09375 37.578125 43 48.078125 38.90625 56.1875 
C 34.796875 64 28.203125 66.078125 23.5 66.078125 
C 16.703125 66.078125 10.90625 62.109375 7.90625 55.78125 
C 4.703125 49.15625 3.796875 42.328125 3.796875 31.9375 
C 3.796875 24.828125 4.09375 16.109375 7.703125 8.484375 
C 11.796875 0.078125 18.703125 -2 23.40625 -2 
C 29.59375 -2 35.59375 1.265625 39 8.09375 
C 42.5 15.21875 43.09375 23.03125 43.09375 31.9375 
z
M 23.40625 4.078125 
C 15.796875 4.078125 13.5 12.671875 12.796875 15.546875 
C 11.59375 20.46875 11.40625 25.21875 11.40625 33.03125 
C 11.40625 39.15625 11.40625 46.0625 13.296875 51.515625 
C 15.59375 57.828125 19.59375 60 23.40625 60 
C 30.796875 60 33.203125 52.6875 34 50.125 
C 35.5 44.890625 35.5 38.765625 35.5 33.03125 
C 35.5 23.84375 35.5 4.078125 23.40625 4.078125 
z
" id="CMSS17-48"/>
       </defs>
       <use transform="scale(0.996264)" xlink:href="#CMSS17-49"/>
       <use transform="translate(46.843624 0)scale(0.996264)" xlink:href="#CMSS17-48"/>
      </g>
     </g>
    </g>
    <g id="xtick_3">
     <g id="line2d_3">
      <g>
       <use style="stroke:#000000;stroke-width:0.8;" x="135.435247" xlink:href="#m05cb7f5232" y="208.5451"/>
      </g>
     </g>
     <g id="text_3">
      <!-- 100 -->
      <g transform="translate(129.083973 221.079902)scale(0.08 -0.08)">
       <use transform="scale(0.996264)" xlink:href="#CMSS17-49"/>
       <use transform="translate(46.843624 0)scale(0.996264)" xlink:href="#CMSS17-48"/>
       <use transform="translate(93.687247 0)scale(0.996264)" xlink:href="#CMSS17-48"/>
      </g>
     </g>
    </g>
    <g id="xtick_4">
     <g id="line2d_4">
      <g>
       <use style="stroke:#000000;stroke-width:0.8;" x="179.714214" xlink:href="#m05cb7f5232" y="208.5451"/>
      </g>
     </g>
     <g id="text_4">
      <!-- 1000 -->
      <g transform="translate(171.245848 221.079902)scale(0.08 -0.08)">
       <use transform="scale(0.996264)" xlink:href="#CMSS17-49"/>
       <use transform="translate(46.843624 0)scale(0.996264)" xlink:href="#CMSS17-48"/>
       <use transform="translate(93.687247 0)scale(0.996264)" xlink:href="#CMSS17-48"/>
       <use transform="translate(140.530871 0)scale(0.996264)" xlink:href="#CMSS17-48"/>
      </g>
     </g>
    </g>
    <g id="xtick_5">
     <g id="line2d_5">
      <g>
       <use style="stroke:#000000;stroke-width:0.8;" x="223.993181" xlink:href="#m05cb7f5232" y="208.5451"/>
      </g>
     </g>
     <g id="text_5">
      <!-- 10000 -->
      <g transform="translate(213.407724 221.079902)scale(0.08 -0.08)">
       <use transform="scale(0.996264)" xlink:href="#CMSS17-49"/>
       <use transform="translate(46.843624 0)scale(0.996264)" xlink:href="#CMSS17-48"/>
       <use transform="translate(93.687247 0)scale(0.996264)" xlink:href="#CMSS17-48"/>
       <use transform="translate(140.530871 0)scale(0.996264)" xlink:href="#CMSS17-48"/>
       <use transform="translate(187.374494 0)scale(0.996264)" xlink:href="#CMSS17-48"/>
      </g>
     </g>
    </g>
    <g id="text_6">
     <!-- number of generations (log scale) -->
     <g transform="translate(76.030801 232.607232)scale(0.08 -0.08)">
      <defs>
       <path d="M 40.90625 29.328125 
C 40.90625 35.671875 39.40625 44 28.09375 44 
C 21.703125 44 17.5 40.71875 14.703125 37.328125 
L 14.703125 43.09375 
L 7.40625 43.09375 
L 7.40625 0 
L 15 0 
L 15 24.359375 
C 15 30.6875 17.40625 37.9375 24.203125 37.9375 
C 33 37.9375 33.296875 32 33.296875 28.578125 
L 33.296875 0 
L 40.90625 0 
z
" id="CMSS17-110"/>
       <path d="M 40.90625 42.796875 
L 33.296875 42.796875 
L 33.296875 15.1875 
C 33.296875 7.78125 27.90625 4.78125 22.203125 4.78125 
C 15.59375 4.78125 15 6.984375 15 11.078125 
L 15 42.796875 
L 7.40625 42.796875 
L 7.40625 10.59375 
C 7.40625 2.796875 10.09375 -1 17 -1 
C 20.40625 -1 28.09375 -0.203125 33.5 4.78125 
L 33.5 0 
L 40.90625 0 
z
" id="CMSS17-117"/>
       <path d="M 67 29.328125 
C 67 36.0625 65.296875 44 54.09375 44 
C 46.59375 44 42.09375 39.3125 40.09375 36.421875 
C 38.296875 41.71875 34.09375 44 28.09375 44 
C 21.296875 44 17 40.125 14.703125 37.328125 
L 14.703125 43.09375 
L 7.40625 43.09375 
L 7.40625 0 
L 15 0 
L 15 24.359375 
C 15 30.296875 17.203125 37.9375 24.296875 37.9375 
C 33.40625 37.9375 33.40625 31.5 33.40625 28.578125 
L 33.40625 0 
L 41 0 
L 41 24.359375 
C 41 30.296875 43.203125 37.9375 50.296875 37.9375 
C 59.40625 37.9375 59.40625 31.5 59.40625 28.578125 
L 59.40625 0 
L 67 0 
z
" id="CMSS17-109"/>
       <path d="M 14.90625 69 
L 7.5 69 
L 7.5 -0.203125 
L 15.09375 -0.203125 
L 15.09375 4.28125 
C 18.90625 0.59375 23.5 -1 27.59375 -1 
C 37.203125 -1 45 8.578125 45 21.125 
C 45 32.59375 39 43.0625 30.09375 43.0625 
C 23.796875 43.0625 18.203125 40.484375 14.90625 37.796875 
z
M 15.09375 31.96875 
C 17.296875 34.71875 20.40625 37 24.796875 37 
C 30.703125 37 37.40625 32.765625 37.40625 21.125 
C 37.40625 8.71875 29.40625 5.078125 23.90625 5.078125 
C 21.90625 5.078125 19.796875 5.5625 17.796875 7.25 
C 15.09375 9.609375 15.09375 11.078125 15.09375 12.453125 
z
" id="CMSS17-98"/>
       <path d="M 39.09375 21.515625 
C 39.09375 24.84375 38.90625 31.296875 35.703125 36.640625 
C 32.203125 42.390625 26.5 44 22.203125 44 
C 11.796875 44 3 34.1875 3 21.484375 
C 3 9.09375 12.09375 -1 23.59375 -1 
C 28.09375 -1 33.59375 0.296875 38.59375 3.875 
C 38.59375 4.28125 38.40625 6.46875 38.296875 6.5625 
C 38.296875 6.765625 38 9.84375 38 10.25 
C 33.203125 6.359375 27.703125 5.078125 23.703125 5.078125 
C 17.296875 5.078125 10.40625 10.421875 10.09375 21.515625 
z
M 10.90625 27 
C 12.203125 32.5625 16.59375 37.828125 22.203125 37.828125 
C 23.703125 37.828125 30.703125 37.828125 32.5 27 
z
" id="CMSS17-101"/>
       <path d="M 14.90625 21.296875 
C 14.90625 30.703125 21.796875 37 30.59375 37 
L 30.59375 43.578125 
C 24.203125 43.578125 18.203125 40.390625 14.59375 35.203125 
L 14.59375 43.09375 
L 7.5 43.09375 
L 7.5 0 
L 14.90625 0 
z
" id="CMSS17-114"/>
       <path d="M 44.203125 21.1875 
C 44.203125 34 34.703125 44 23.5 44 
C 12 44 2.703125 33.703125 2.703125 21.1875 
C 2.703125 8.5 12.296875 -1 23.40625 -1 
C 34.796875 -1 44.203125 8.796875 44.203125 21.1875 
z
M 23.5 5.265625 
C 16.40625 5.265625 10.296875 11.078125 10.296875 22 
C 10.296875 33.609375 17.40625 37.921875 23.40625 37.921875 
C 29.90625 37.921875 36.59375 33.21875 36.59375 22 
C 36.59375 10.671875 30.09375 5.265625 23.5 5.265625 
z
" id="CMSS17-111"/>
       <path d="M 16.796875 37 
L 26.90625 37 
L 26.90625 42.765625 
L 16.59375 42.765625 
L 16.59375 55.609375 
C 16.59375 62.71875 22 63.9375 25.09375 63.9375 
C 26.09375 63.9375 28.90625 63.9375 32.5 62.640625 
L 32.5 69.203125 
C 30.203125 69.703125 27.40625 70 25.203125 70 
C 15.90625 70 9.40625 62.390625 9.40625 52.484375 
L 9.40625 42.765625 
L 2.5 42.765625 
L 2.5 37 
L 9.40625 37 
L 9.40625 0 
L 16.796875 0 
z
" id="CMSS17-102"/>
       <path d="M 44.5 43.875 
C 38.796875 43.875 33.90625 42.78125 29.90625 40.890625 
C 26.59375 43.390625 23.203125 43.875 20.90625 43.875 
C 12.203125 43.875 5.59375 36.703125 5.59375 28.34375 
C 5.59375 22.9375 8.59375 18.859375 8.796875 18.671875 
C 7 16.171875 6 13.484375 6 10.5 
C 6 7 7.40625 4.515625 8.5 3.125 
C 3.296875 -0.046875 2.59375 -4.90625 2.59375 -6.796875 
C 2.59375 -14.03125 11.703125 -20 23.40625 -20 
C 35.203125 -20 44.296875 -14.03125 44.296875 -6.6875 
C 44.296875 7 29 7 24.796875 7 
L 16.703125 7 
C 15.203125 7 11.203125 7 11.203125 12.359375 
C 11.203125 14.390625 12.09375 15.6875 12.203125 15.78125 
C 13.703125 14.6875 16.796875 13 20.90625 13 
C 29.203125 13 36.09375 19.96875 36.09375 28.546875 
C 36.09375 33.3125 33.90625 36.796875 33 38 
L 33.296875 38 
C 33.59375 38 37.796875 38 39.296875 38 
C 42.5 38 42.796875 37.953125 45.59375 37.796875 
z
M 20.90625 18.46875 
C 17.5 18.46875 12.703125 20.546875 12.703125 28.484375 
C 12.703125 37.109375 18.203125 38.5 20.796875 38.5 
C 24.203125 38.5 29 36.421875 29 28.484375 
C 29 19.859375 23.5 18.46875 20.90625 18.46875 
z
M 24.703125 -0.15625 
C 27.09375 -0.15625 37.203125 -0.15625 37.203125 -6.90625 
C 37.203125 -11.15625 31 -14.515625 23.5 -14.515625 
C 15.90625 -14.515625 9.703125 -11.25 9.703125 -6.796875 
C 9.703125 -6.296875 9.703125 -0.15625 16.59375 -0.15625 
z
" id="CMSS17-103"/>
       <path d="M 37.59375 27.984375 
C 37.59375 37.375 30.90625 43.875 21.90625 43.875 
C 17.5 43.875 12.703125 43.078125 7.203125 39.890625 
L 7.796875 33.359375 
C 10.296875 35.125 14.59375 38 21.796875 38 
C 26.90625 38 30 34.0625 30 27.84375 
L 30 24 
C 14 24 4 19.34375 4 11.34375 
C 4 7.203125 6.5 -1 14.796875 -1 
C 16.296875 -1 24.40625 -1 30.203125 3.390625 
L 30.203125 -0.296875 
L 37.59375 -0.296875 
z
M 30 12.75 
C 30 10.953125 30 8.5625 27 6.78125 
C 24.40625 5.078125 21.09375 5.078125 19.703125 5.078125 
C 14.703125 5.078125 11.296875 7.984375 11.296875 11.625 
C 11.296875 18.921875 26.90625 18.921875 30 18.921875 
z
" id="CMSS17-97"/>
       <path d="M 16.703125 37 
L 29.703125 37 
L 29.703125 42.765625 
L 16.703125 42.765625 
L 16.703125 55 
L 9.59375 55 
L 9.59375 42.765625 
L 1.703125 42.765625 
L 1.703125 37 
L 9.40625 37 
L 9.40625 11.703125 
C 9.40625 6 10.703125 -1 17.296875 -1 
C 22.296875 -1 26.90625 0.390625 31.296875 2.6875 
L 29.703125 8.5625 
C 27.296875 6.46875 24.40625 5.265625 21.296875 5.265625 
C 16.90625 5.265625 16.703125 10.875 16.703125 13.375 
z
" id="CMSS17-116"/>
       <path d="M 15.296875 65.359375 
L 6.90625 65.359375 
L 6.90625 57 
L 15.296875 57 
z
M 14.796875 42.796875 
L 7.40625 42.796875 
L 7.40625 0 
L 14.796875 0 
z
" id="CMSS17-105"/>
       <path d="M 32.203125 41.046875 
C 26.296875 43.859375 21.703125 43.859375 18.703125 43.859375 
C 11.59375 43.859375 3.09375 41.375 3.09375 31.296875 
C 3.09375 21.234375 14.09375 19.03125 17.09375 18.421875 
C 21.703125 17.53125 26.796875 16.53125 26.796875 11.5625 
C 26.796875 5.265625 19.59375 5.265625 18.296875 5.265625 
C 14.296875 5.265625 8.796875 6.359375 3.796875 9.96875 
L 2.59375 3.28125 
C 8.296875 0 13.796875 -1 18.40625 -1 
C 30.703125 -1 33.796875 6.5 33.796875 12.203125 
C 33.796875 17.09375 31 20.390625 29.09375 21.890625 
C 25.796875 24.5 24.59375 24.796875 16.40625 26.5 
C 15 26.703125 10.09375 27.796875 10.09375 32.28125 
C 10.09375 38 16.40625 38 17.796875 38 
C 24.296875 38 28.296875 35.984375 31 34.5 
z
" id="CMSS17-115"/>
       <path d="M 25.203125 74.5 
C 19.796875 69.015625 7.40625 56.265625 7.40625 24.8125 
C 7.40625 -6.765625 19.796875 -19.421875 25.203125 -25 
L 31.296875 -25 
C 19 -12.25 15 5.578125 15 24.703125 
C 15 43.71875 18.796875 61.65625 31.296875 74.5 
z
" id="CMSS17-40"/>
       <path d="M 14.796875 69 
L 7.40625 69 
L 7.40625 0 
L 14.796875 0 
z
" id="CMSS17-108"/>
       <path d="M 38.5 39.703125 
C 38.5 40.390625 33.90625 42.40625 32.703125 42.796875 
C 29.40625 44 25.203125 44 24.09375 44 
C 11.09375 44 3.296875 32.703125 3.296875 21.296875 
C 3.296875 9.296875 12 -1 23.703125 -1 
C 30.40625 -1 35.203125 1.1875 39.09375 3.78125 
L 38.5 10.375 
C 34.203125 7.078125 29.203125 5.265625 23.796875 5.265625 
C 16 5.265625 10.90625 12.09375 10.90625 21.390625 
C 10.90625 28.609375 14.203125 37.71875 24.203125 37.71875 
C 29.703125 37.71875 32.796875 36.609375 37.40625 33.515625 
z
" id="CMSS17-99"/>
       <path d="M 11.296875 -25 
C 16.703125 -19.515625 29.09375 -6.765625 29.09375 24.703125 
C 29.09375 56.265625 16.703125 68.921875 11.296875 74.5 
L 5.203125 74.5 
C 17.5 61.75 21.5 43.921875 21.5 24.8125 
C 21.5 5.78125 17.703125 -12.15625 5.203125 -25 
z
" id="CMSS17-41"/>
      </defs>
      <use transform="scale(0.996264)" xlink:href="#CMSS17-110"/>
      <use transform="translate(48.204943 0)scale(0.996264)" xlink:href="#CMSS17-117"/>
      <use transform="translate(96.409886 0)scale(0.996264)" xlink:href="#CMSS17-109"/>
      <use transform="translate(170.639141 0)scale(0.996264)" xlink:href="#CMSS17-98"/>
      <use transform="translate(221.446523 0)scale(0.996264)" xlink:href="#CMSS17-101"/>
      <use transform="translate(263.085345 0)scale(0.996264)" xlink:href="#CMSS17-114"/>
      <use transform="translate(326.22423 0)scale(0.996264)" xlink:href="#CMSS17-111"/>
      <use transform="translate(373.067853 0)scale(0.996264)" xlink:href="#CMSS17-102"/>
      <use transform="translate(432.923625 0)scale(0.996264)" xlink:href="#CMSS17-103"/>
      <use transform="translate(479.767249 0)scale(0.996264)" xlink:href="#CMSS17-101"/>
      <use transform="translate(521.406071 0)scale(0.996264)" xlink:href="#CMSS17-110"/>
      <use transform="translate(569.611014 0)scale(0.996264)" xlink:href="#CMSS17-101"/>
      <use transform="translate(611.249836 0)scale(0.996264)" xlink:href="#CMSS17-114"/>
      <use transform="translate(643.159608 0)scale(0.996264)" xlink:href="#CMSS17-97"/>
      <use transform="translate(688.081529 0)scale(0.996264)" xlink:href="#CMSS17-116"/>
      <use transform="translate(721.913096 0)scale(0.996264)" xlink:href="#CMSS17-105"/>
      <use transform="translate(744.093819 0)scale(0.996264)" xlink:href="#CMSS17-111"/>
      <use transform="translate(790.937442 0)scale(0.996264)" xlink:href="#CMSS17-110"/>
      <use transform="translate(839.142385 0)scale(0.996264)" xlink:href="#CMSS17-115"/>
      <use transform="translate(906.28504 0)scale(0.996264)" xlink:href="#CMSS17-40"/>
      <use transform="translate(942.718954 0)scale(0.996264)" xlink:href="#CMSS17-108"/>
      <use transform="translate(964.899677 0)scale(0.996264)" xlink:href="#CMSS17-111"/>
      <use transform="translate(1011.743301 0)scale(0.996264)" xlink:href="#CMSS17-103"/>
      <use transform="translate(1089.816037 0)scale(0.996264)" xlink:href="#CMSS17-115"/>
      <use transform="translate(1125.729579 0)scale(0.996264)" xlink:href="#CMSS17-99"/>
      <use transform="translate(1167.368401 0)scale(0.996264)" xlink:href="#CMSS17-97"/>
      <use transform="translate(1212.290322 0)scale(0.996264)" xlink:href="#CMSS17-108"/>
      <use transform="translate(1234.471045 0)scale(0.996264)" xlink:href="#CMSS17-101"/>
      <use transform="translate(1276.109867 0)scale(0.996264)" xlink:href="#CMSS17-41"/>
     </g>
    </g>
   </g>
   <g id="matplotlib.axis_2">
    <g id="ytick_1">
     <g id="line2d_6">
      <defs>
       <path d="M 0 0 
L -3.5 0 
" id="m7c76eaafaa" style="stroke:#000000;stroke-width:0.8;"/>
      </defs>
      <g>
       <use style="stroke:#000000;stroke-width:0.8;" x="38.021519" xlink:href="#m7c76eaafaa" y="207.680314"/>
      </g>
     </g>
     <g id="text_7">
      <!-- $\mathdefault{900}$ -->
      <g transform="translate(18.31897 210.447715)scale(0.08 -0.08)">
       <defs>
        <path d="M 35.203125 29.125 
C 35.203125 7.25 26.09375 0.484375 18.59375 0.484375 
C 16.296875 0.484375 10.703125 0.484375 8.40625 4.59375 
C 11 4.1875 12.90625 5.578125 12.90625 8.09375 
C 12.90625 10.8125 10.703125 11.703125 9.296875 11.703125 
C 8.40625 11.703125 5.703125 11.296875 5.703125 7.90625 
C 5.703125 1.109375 11.59375 -2 18.796875 -2 
C 30.296875 -2 42 10.53125 42 32.390625 
C 42 59.640625 30.796875 65.296875 23.203125 65.296875 
C 13.296875 65.296875 3.796875 56.6875 3.796875 43.40625 
C 3.796875 31.109375 11.90625 22 22.09375 22 
C 30.5 22 34.203125 29.734375 35.203125 33 
z
M 22.296875 23.59375 
C 19.59375 23.59375 15.796875 24.09375 12.703125 30.03125 
C 10.59375 33.890625 10.59375 38.453125 10.59375 43.296875 
C 10.59375 49.15625 10.59375 53.203125 13.40625 57.5625 
C 14.796875 59.640625 17.40625 63 23.203125 63 
C 35 63 35 45.078125 35 41.125 
C 35 34.09375 31.796875 23.59375 22.296875 23.59375 
z
" id="CMR17-57"/>
        <path d="M 42 31.640625 
C 42 37.75 41.90625 48.125 37.703125 56.109375 
C 34 63.109375 28.09375 65.59375 22.90625 65.59375 
C 18.09375 65.59375 12 63.40625 8.203125 56.203125 
C 4.203125 48.71875 3.796875 39.4375 3.796875 31.640625 
C 3.796875 25.953125 3.90625 17.28125 7 9.671875 
C 11.296875 -0.609375 19 -2 22.90625 -2 
C 27.5 -2 34.5 -0.109375 38.59375 9.375 
C 41.59375 16.28125 42 24.359375 42 31.640625 
z
M 22.90625 -0.40625 
C 16.5 -0.40625 12.703125 5.078125 11.296875 12.6875 
C 10.203125 18.5625 10.203125 27.15625 10.203125 32.75 
C 10.203125 40.4375 10.203125 46.828125 11.5 52.921875 
C 13.40625 61.390625 19 64 22.90625 64 
C 27 64 32.296875 61.296875 34.203125 53.125 
C 35.5 47.4375 35.59375 40.734375 35.59375 32.75 
C 35.59375 26.25 35.59375 18.265625 34.40625 12.375 
C 32.296875 1.484375 26.40625 -0.40625 22.90625 -0.40625 
z
" id="CMR17-48"/>
       </defs>
       <use transform="scale(0.996264)" xlink:href="#CMR17-57"/>
       <use transform="translate(45.690477 0)scale(0.996264)" xlink:href="#CMR17-48"/>
       <use transform="translate(91.380954 0)scale(0.996264)" xlink:href="#CMR17-48"/>
      </g>
     </g>
    </g>
    <g id="ytick_2">
     <g id="line2d_7">
      <g>
       <use style="stroke:#000000;stroke-width:0.8;" x="38.021519" xlink:href="#m7c76eaafaa" y="174.079912"/>
      </g>
     </g>
     <g id="text_8">
      <!-- $\mathdefault{950}$ -->
      <g transform="translate(18.31897 176.847313)scale(0.08 -0.08)">
       <defs>
        <path d="M 11.40625 57.6875 
C 12.40625 57.28125 16.5 56 20.703125 56 
C 30 56 35.09375 61.109375 38 64.0625 
C 38 64.953125 38 65.5 37.40625 65.5 
C 37.296875 65.5 37.09375 65.5 36.296875 65.046875 
C 32.796875 63.40625 28.703125 62.078125 23.703125 62.078125 
C 20.703125 62.078125 16.203125 62.484375 11.296875 64.671875 
C 10.203125 65.171875 10 65.171875 9.90625 65.171875 
C 9.40625 65.171875 9.296875 65.0625 9.296875 63.078125 
L 9.296875 34.421875 
C 9.296875 32.640625 9.296875 32.140625 10.296875 32.140625 
C 10.796875 32.140625 11 32.34375 11.5 33.03125 
C 14.703125 37.515625 19.09375 39.40625 24.09375 39.40625 
C 27.59375 39.40625 35.09375 37.21875 35.09375 20.140625 
C 35.09375 16.953125 35.09375 11.171875 32.09375 6.578125 
C 29.59375 2.484375 25.703125 0.390625 21.40625 0.390625 
C 14.796875 0.390625 8.09375 5 6.296875 12.71875 
C 6.703125 12.609375 7.5 12.421875 7.90625 12.421875 
C 9.203125 12.421875 11.703125 13.125 11.703125 16.21875 
C 11.703125 18.90625 9.796875 20 7.90625 20 
C 5.59375 20 4.09375 18.59375 4.09375 15.796875 
C 4.09375 7.09375 11 -2 21.59375 -2 
C 31.90625 -2 41.703125 6.875 41.703125 19.75 
C 41.703125 31.71875 33.90625 41 24.203125 41 
C 19.09375 41 14.796875 39.109375 11.40625 35.53125 
z
" id="CMR17-53"/>
       </defs>
       <use transform="scale(0.996264)" xlink:href="#CMR17-57"/>
       <use transform="translate(45.690477 0)scale(0.996264)" xlink:href="#CMR17-53"/>
       <use transform="translate(91.380954 0)scale(0.996264)" xlink:href="#CMR17-48"/>
      </g>
     </g>
    </g>
    <g id="ytick_3">
     <g id="line2d_8">
      <g>
       <use style="stroke:#000000;stroke-width:0.8;" x="38.021519" xlink:href="#m7c76eaafaa" y="140.47951"/>
      </g>
     </g>
     <g id="text_9">
      <!-- $\mathdefault{1000}$ -->
      <g transform="translate(14.084787 143.246911)scale(0.08 -0.08)">
       <defs>
        <path d="M 26.59375 63.40625 
C 26.59375 65.5 26.5 65.5 25.09375 65.5 
C 21.203125 61.1875 15.296875 59.796875 9.703125 59.796875 
C 9.40625 59.796875 8.90625 59.796875 8.796875 59.5 
C 8.703125 59.296875 8.703125 59.09375 8.703125 57 
C 11.796875 57 17 57.59375 21 59.984375 
L 21 7.203125 
C 21 3.6875 20.796875 2.5 12.203125 2.5 
L 9.203125 2.5 
L 9.203125 0 
C 14 0 19 0 23.796875 0 
C 28.59375 0 33.59375 0 38.40625 0 
L 38.40625 2.5 
L 35.40625 2.5 
C 26.796875 2.5 26.59375 3.59375 26.59375 7.15625 
z
" id="CMR17-49"/>
       </defs>
       <use transform="scale(0.996264)" xlink:href="#CMR17-49"/>
       <use transform="translate(45.690477 0)scale(0.996264)" xlink:href="#CMR17-48"/>
       <use transform="translate(91.380954 0)scale(0.996264)" xlink:href="#CMR17-48"/>
       <use transform="translate(137.071431 0)scale(0.996264)" xlink:href="#CMR17-48"/>
      </g>
     </g>
    </g>
    <g id="ytick_4">
     <g id="line2d_9">
      <g>
       <use style="stroke:#000000;stroke-width:0.8;" x="38.021519" xlink:href="#m7c76eaafaa" y="106.879108"/>
      </g>
     </g>
     <g id="text_10">
      <!-- $\mathdefault{1050}$ -->
      <g transform="translate(14.084787 109.646509)scale(0.08 -0.08)">
       <use transform="scale(0.996264)" xlink:href="#CMR17-49"/>
       <use transform="translate(45.690477 0)scale(0.996264)" xlink:href="#CMR17-48"/>
       <use transform="translate(91.380954 0)scale(0.996264)" xlink:href="#CMR17-53"/>
       <use transform="translate(137.071431 0)scale(0.996264)" xlink:href="#CMR17-48"/>
      </g>
     </g>
    </g>
    <g id="ytick_5">
     <g id="line2d_10">
      <g>
       <use style="stroke:#000000;stroke-width:0.8;" x="38.021519" xlink:href="#m7c76eaafaa" y="73.278706"/>
      </g>
     </g>
     <g id="text_11">
      <!-- $\mathdefault{1100}$ -->
      <g transform="translate(14.084787 76.046106)scale(0.08 -0.08)">
       <use transform="scale(0.996264)" xlink:href="#CMR17-49"/>
       <use transform="translate(45.690477 0)scale(0.996264)" xlink:href="#CMR17-49"/>
       <use transform="translate(91.380954 0)scale(0.996264)" xlink:href="#CMR17-48"/>
       <use transform="translate(137.071431 0)scale(0.996264)" xlink:href="#CMR17-48"/>
      </g>
     </g>
    </g>
    <g id="ytick_6">
     <g id="line2d_11">
      <g>
       <use style="stroke:#000000;stroke-width:0.8;" x="38.021519" xlink:href="#m7c76eaafaa" y="39.678303"/>
      </g>
     </g>
     <g id="text_12">
      <!-- $\mathdefault{1150}$ -->
      <g transform="translate(14.084787 42.445704)scale(0.08 -0.08)">
       <use transform="scale(0.996264)" xlink:href="#CMR17-49"/>
       <use transform="translate(45.690477 0)scale(0.996264)" xlink:href="#CMR17-49"/>
       <use transform="translate(91.380954 0)scale(0.996264)" xlink:href="#CMR17-53"/>
       <use transform="translate(137.071431 0)scale(0.996264)" xlink:href="#CMR17-48"/>
      </g>
     </g>
    </g>
    <g id="ytick_7">
     <g id="line2d_12">
      <g>
       <use style="stroke:#000000;stroke-width:0.8;" x="38.021519" xlink:href="#m7c76eaafaa" y="6.077901"/>
      </g>
     </g>
     <g id="text_13">
      <!-- $\mathdefault{1200}$ -->
      <g transform="translate(14.084787 8.845302)scale(0.08 -0.08)">
       <defs>
        <path d="M 41.703125 15.453125 
L 39.90625 15.453125 
C 38.90625 8.375 38.09375 7.171875 37.703125 6.5625 
C 37.203125 5.765625 30 5.765625 28.59375 5.765625 
L 9.40625 5.765625 
C 13 9.671875 20 16.75 28.5 24.953125 
C 34.59375 30.734375 41.703125 37.53125 41.703125 47.421875 
C 41.703125 59.21875 32.296875 66 21.796875 66 
C 10.796875 66 4.09375 56.3125 4.09375 47.34375 
C 4.09375 43.4375 7 42.9375 8.203125 42.9375 
C 9.203125 42.9375 12.203125 43.546875 12.203125 47.03125 
C 12.203125 50.109375 9.59375 51 8.203125 51 
C 7.59375 51 7 50.90625 6.59375 50.703125 
C 8.5 59.21875 14.296875 63.40625 20.40625 63.40625 
C 29.09375 63.40625 34.796875 56.515625 34.796875 47.421875 
C 34.796875 38.734375 29.703125 31.25 24 24.75 
L 4.09375 2.28125 
L 4.09375 0 
L 39.296875 0 
z
" id="CMR17-50"/>
       </defs>
       <use transform="scale(0.996264)" xlink:href="#CMR17-49"/>
       <use transform="translate(45.690477 0)scale(0.996264)" xlink:href="#CMR17-50"/>
       <use transform="translate(91.380954 0)scale(0.996264)" xlink:href="#CMR17-48"/>
       <use transform="translate(137.071431 0)scale(0.996264)" xlink:href="#CMR17-48"/>
      </g>
     </g>
    </g>
    <g id="text_14">
     <!-- average solution cost -->
     <g transform="translate(8.535042 142.871564)rotate(-90)scale(0.08 -0.08)">
      <defs>
       <path d="M 41.796875 43 
L 34 43 
L 27.296875 24.3125 
C 25.203125 18.203125 22.203125 9.796875 21.703125 5.5 
L 21.59375 5.5 
C 21.40625 7.3125 20.59375 9.90625 20.09375 11.703125 
C 19.5 13.90625 18.703125 16.5 18.09375 18.3125 
L 9.296875 43 
L 1.296875 43 
L 17.09375 0 
L 26 0 
z
" id="CMSS17-118"/>
      </defs>
      <use transform="scale(0.996264)" xlink:href="#CMSS17-97"/>
      <use transform="translate(44.921921 0)scale(0.996264)" xlink:href="#CMSS17-118"/>
      <use transform="translate(87.922062 0)scale(0.996264)" xlink:href="#CMSS17-101"/>
      <use transform="translate(129.560884 0)scale(0.996264)" xlink:href="#CMSS17-114"/>
      <use transform="translate(161.470657 0)scale(0.996264)" xlink:href="#CMSS17-97"/>
      <use transform="translate(206.392578 0)scale(0.996264)" xlink:href="#CMSS17-103"/>
      <use transform="translate(253.236201 0)scale(0.996264)" xlink:href="#CMSS17-101"/>
      <use transform="translate(326.104136 0)scale(0.996264)" xlink:href="#CMSS17-115"/>
      <use transform="translate(362.017678 0)scale(0.996264)" xlink:href="#CMSS17-111"/>
      <use transform="translate(408.861301 0)scale(0.996264)" xlink:href="#CMSS17-108"/>
      <use transform="translate(431.042024 0)scale(0.996264)" xlink:href="#CMSS17-117"/>
      <use transform="translate(479.246968 0)scale(0.996264)" xlink:href="#CMSS17-116"/>
      <use transform="translate(513.078534 0)scale(0.996264)" xlink:href="#CMSS17-105"/>
      <use transform="translate(535.259257 0)scale(0.996264)" xlink:href="#CMSS17-111"/>
      <use transform="translate(582.102881 0)scale(0.996264)" xlink:href="#CMSS17-110"/>
      <use transform="translate(661.536937 0)scale(0.996264)" xlink:href="#CMSS17-99"/>
      <use transform="translate(703.175759 0)scale(0.996264)" xlink:href="#CMSS17-111"/>
      <use transform="translate(750.019382 0)scale(0.996264)" xlink:href="#CMSS17-115"/>
      <use transform="translate(785.932924 0)scale(0.996264)" xlink:href="#CMSS17-116"/>
     </g>
    </g>
   </g>
   <g id="line2d_13">
    <path clip-path="url(#pd39bcdb938)" d="M 46.877312 12.77083 
L 91.15628 32.659553 
L 135.435247 76.978144 
L 179.714214 126.923954 
L 223.993181 173.910213 
" style="fill:none;stroke:#1f77b4;stroke-linecap:square;stroke-width:1.5;"/>
   </g>
   <g id="line2d_14">
    <path clip-path="url(#pd39bcdb938)" d="M 46.877312 13.748296 
L 91.15628 33.704898 
L 135.435247 79.781571 
L 179.714214 129.781685 
L 223.993181 176.095936 
" style="fill:none;stroke:#ff7f0e;stroke-linecap:square;stroke-width:1.5;"/>
   </g>
   <g id="line2d_15">
    <path clip-path="url(#pd39bcdb938)" d="M 46.877312 12.343188 
L 91.15628 32.978587 
L 135.435247 80.881221 
L 179.714214 134.227799 
L 223.993181 179.856466 
" style="fill:none;stroke:#2ca02c;stroke-linecap:square;stroke-width:1.5;"/>
   </g>
   <g id="line2d_16">
    <path clip-path="url(#pd39bcdb938)" d="M 46.877312 13.008408 
L 91.15628 32.055424 
L 135.435247 85.177999 
L 179.714214 138.78252 
L 223.993181 183.515177 
" style="fill:none;stroke:#d62728;stroke-linecap:square;stroke-width:1.5;"/>
   </g>
   <g id="line2d_17">
    <path clip-path="url(#pd39bcdb938)" d="M 46.877312 12.831921 
L 91.15628 32.876767 
L 135.435247 87.988215 
L 179.714214 142.9096 
L 223.993181 188.687602 
" style="fill:none;stroke:#9467bd;stroke-linecap:square;stroke-width:1.5;"/>
   </g>
   <g id="line2d_18">
    <path clip-path="url(#pd39bcdb938)" d="M 46.877312 12.757254 
L 91.15628 31.953605 
L 135.435247 90.93419 
L 179.714214 149.120583 
L 223.993181 192.617831 
" style="fill:none;stroke:#8c564b;stroke-linecap:square;stroke-width:1.5;"/>
   </g>
   <g id="line2d_19">
    <path clip-path="url(#pd39bcdb938)" d="M 46.877312 12.601131 
L 91.15628 31.227293 
L 135.435247 95.740065 
L 179.714214 156.926737 
L 223.993181 199.202152 
" style="fill:none;stroke:#e377c2;stroke-linecap:square;stroke-width:1.5;"/>
   </g>
   <g id="line2d_20">
    <path clip-path="url(#pd39bcdb938)" d="M 46.877312 13.816176 
L 91.15628 26.054867 
L 135.435247 48.068222 
L 179.714214 79.340354 
L 223.993181 107.157414 
" style="fill:none;stroke:#7f7f7f;stroke-linecap:square;stroke-width:1.5;"/>
   </g>
   <g id="line2d_21">
    <path clip-path="url(#pd39bcdb938)" d="M 46.877312 13.924783 
L 91.15628 25.362496 
L 135.435247 46.995724 
L 179.714214 86.053646 
L 223.993181 117.28505 
" style="fill:none;stroke:#bcbd22;stroke-linecap:square;stroke-width:1.5;"/>
   </g>
   <g id="line2d_22">
    <path clip-path="url(#pd39bcdb938)" d="M 46.877312 14.074118 
L 91.15628 25.620438 
L 135.435247 47.30797 
L 179.714214 86.813898 
L 223.993181 119.844111 
" style="fill:none;stroke:#17becf;stroke-linecap:square;stroke-width:1.5;"/>
   </g>
   <g id="patch_3">
    <path d="M 38.021519 208.5451 
L 38.021519 3.00024 
" style="fill:none;stroke:#000000;stroke-linecap:square;stroke-linejoin:miter;stroke-width:0.8;"/>
   </g>
   <g id="patch_4">
    <path d="M 232.848975 208.5451 
L 232.848975 3.00024 
" style="fill:none;stroke:#000000;stroke-linecap:square;stroke-linejoin:miter;stroke-width:0.8;"/>
   </g>
   <g id="patch_5">
    <path d="M 38.021519 208.5451 
L 232.848975 208.5451 
" style="fill:none;stroke:#000000;stroke-linecap:square;stroke-linejoin:miter;stroke-width:0.8;"/>
   </g>
   <g id="patch_6">
    <path d="M 38.021519 3.00024 
L 232.848975 3.00024 
" style="fill:none;stroke:#000000;stroke-linecap:square;stroke-linejoin:miter;stroke-width:0.8;"/>
   </g>
   <g id="legend_1">
    <g id="patch_7">
     <path d="M 43.621519 204.5451 
L 101.531357 204.5451 
Q 103.131357 204.5451 103.131357 202.9451 
L 103.131357 84.461437 
Q 103.131357 82.861437 101.531357 82.861437 
L 43.621519 82.861437 
Q 42.021519 82.861437 42.021519 84.461437 
L 42.021519 202.9451 
Q 42.021519 204.5451 43.621519 204.5451 
z
" style="fill:#ffffff;opacity:0.8;stroke:#cccccc;stroke-linejoin:miter;"/>
    </g>
    <g id="line2d_23">
     <path d="M 45.221519 89.340187 
L 61.221519 89.340187 
" style="fill:none;stroke:#1f77b4;stroke-linecap:square;stroke-width:1.5;"/>
    </g>
    <g id="line2d_24"/>
    <g id="text_15">
     <!-- Cycle(8) -->
     <g transform="translate(67.621519 92.140187)scale(0.08 -0.08)">
      <defs>
       <path d="M 54.703125 11.15625 
C 48 6.671875 44.90625 5.375 36.796875 5.375 
C 22.796875 5.375 14.59375 20.359375 14.59375 34.046875 
C 14.59375 48.625 23 63 37.203125 63 
C 43.59375 63 47.796875 61.21875 52.90625 58.046875 
L 54.296875 65.890625 
C 49.5 68.28125 43.40625 69.375 37.296875 69.375 
C 18.09375 69.375 6.203125 51.8125 6.203125 34.046875 
C 6.203125 14.484375 20.296875 -1 36.296875 -1 
C 44.90625 -1 47.90625 -0.296875 55.296875 4.375 
z
" id="CMSS17-67"/>
       <path d="M 41.796875 43 
L 34 43 
C 25.5 20.21875 22.59375 10.96875 22.40625 5.984375 
L 22.296875 5.984375 
C 22 10.875 17.59375 22.8125 14.09375 31.359375 
L 9.40625 43 
L 1.296875 43 
L 19 0.203125 
C 17.90625 -2.78125 16.296875 -7.265625 15.796875 -8.265625 
C 13.59375 -13.828125 12.09375 -13.828125 10.5 -13.828125 
C 10.09375 -13.828125 6.90625 -13.828125 3.296875 -12.640625 
L 3.90625 -19.203125 
C 6.40625 -19.703125 8.90625 -20 10.703125 -20 
C 13.203125 -20 18.203125 -20 22.796875 -7.765625 
z
" id="CMSS17-121"/>
       <path d="M 30.203125 34.71875 
C 37.796875 37.1875 41.703125 43.125 41.703125 48.96875 
C 41.703125 58.15625 33.703125 66.078125 23.5 66.078125 
C 12.90625 66.078125 5.203125 57.9375 5.203125 49.125 
C 5.203125 43.4375 9 37.546875 16.703125 35.015625 
C 6.90625 31.203125 3.90625 23.625 3.90625 17.953125 
C 3.90625 6.96875 12.796875 -2 23.40625 -2 
C 34.40625 -2 43 7.109375 43 17.78125 
C 43 24.328125 39.09375 31.25 30.203125 34.71875 
z
M 23.5 38 
C 16.796875 38 12.296875 42.375 12.296875 49 
C 12.296875 55.71875 16.796875 60 23.5 60 
C 29.703125 60 34.59375 56.109375 34.59375 49 
C 34.59375 41.984375 29.796875 38 23.5 38 
z
M 23.5 4.171875 
C 17.796875 4.171875 11.703125 8.078125 11.703125 18.0625 
C 11.703125 28.328125 18.5 31.921875 23.40625 31.921875 
C 28.796875 31.921875 35.203125 28.125 35.203125 18.0625 
C 35.203125 7.671875 28.59375 4.171875 23.5 4.171875 
z
" id="CMSS17-56"/>
      </defs>
      <use transform="scale(0.996264)" xlink:href="#CMSS17-67"/>
      <use transform="translate(59.855772 0)scale(0.996264)" xlink:href="#CMSS17-121"/>
      <use transform="translate(102.855913 0)scale(0.996264)" xlink:href="#CMSS17-99"/>
      <use transform="translate(144.494735 0)scale(0.996264)" xlink:href="#CMSS17-108"/>
      <use transform="translate(166.675458 0)scale(0.996264)" xlink:href="#CMSS17-101"/>
      <use transform="translate(208.31428 0)scale(0.996264)" xlink:href="#CMSS17-40"/>
      <use transform="translate(244.748195 0)scale(0.996264)" xlink:href="#CMSS17-56"/>
      <use transform="translate(291.591818 0)scale(0.996264)" xlink:href="#CMSS17-41"/>
     </g>
    </g>
    <g id="line2d_25">
     <path d="M 45.221519 101.411465 
L 61.221519 101.411465 
" style="fill:none;stroke:#ff7f0e;stroke-linecap:square;stroke-width:1.5;"/>
    </g>
    <g id="line2d_26"/>
    <g id="text_16">
     <!-- Cycle(7) -->
     <g transform="translate(67.621519 104.211465)scale(0.08 -0.08)">
      <defs>
       <path d="M 21.703125 59 
C 22.90625 59 24.09375 59 25.296875 59 
L 36.796875 59 
C 22.5 42.359375 14.296875 21.328125 14.296875 -0.5 
L 22.296875 -0.5 
C 22.296875 20.671875 29.296875 42.125 43 59.296875 
L 43 65.765625 
L 3.90625 65.765625 
L 3.90625 59 
z
" id="CMSS17-55"/>
      </defs>
      <use transform="scale(0.996264)" xlink:href="#CMSS17-67"/>
      <use transform="translate(59.855772 0)scale(0.996264)" xlink:href="#CMSS17-121"/>
      <use transform="translate(102.855913 0)scale(0.996264)" xlink:href="#CMSS17-99"/>
      <use transform="translate(144.494735 0)scale(0.996264)" xlink:href="#CMSS17-108"/>
      <use transform="translate(166.675458 0)scale(0.996264)" xlink:href="#CMSS17-101"/>
      <use transform="translate(208.31428 0)scale(0.996264)" xlink:href="#CMSS17-40"/>
      <use transform="translate(244.748195 0)scale(0.996264)" xlink:href="#CMSS17-55"/>
      <use transform="translate(291.591818 0)scale(0.996264)" xlink:href="#CMSS17-41"/>
     </g>
    </g>
    <g id="line2d_27">
     <path d="M 45.221519 113.482743 
L 61.221519 113.482743 
" style="fill:none;stroke:#2ca02c;stroke-linecap:square;stroke-width:1.5;"/>
    </g>
    <g id="line2d_28"/>
    <g id="text_17">
     <!-- Cycle(6) -->
     <g transform="translate(67.621519 116.282743)scale(0.08 -0.08)">
      <defs>
       <path d="M 39 64.078125 
C 34.796875 65.78125 31.796875 66.078125 29 66.078125 
C 16 66.078125 3.90625 52.625 3.90625 31.34375 
C 3.90625 4.140625 15.40625 -2 23.59375 -2 
C 28.09375 -2 32.59375 -0.609375 36.90625 4.375 
C 41.296875 9.640625 43 14.03125 43 21.703125 
C 43 34.046875 36.90625 45 27.796875 45 
C 21.203125 45 15.5 41.515625 12 37.125 
C 13 50.90625 19.59375 60 29.09375 60 
C 31.703125 60 35.09375 59.625 39 57.96875 
z
M 12.09375 21.390625 
C 12.09375 22.1875 12.09375 22.6875 12.203125 24.1875 
C 12.203125 31.953125 16.703125 38.921875 24 38.921875 
C 28.703125 38.921875 31.09375 36.4375 32.90625 33.359375 
C 35 29.46875 35.09375 25.78125 35.09375 21.6875 
C 35.09375 17.8125 35.09375 13.921875 32.796875 9.953125 
C 30.90625 6.859375 28.40625 4.171875 23.59375 4.171875 
C 14.09375 4.171875 12.5 17.40625 12.09375 21.390625 
z
" id="CMSS17-54"/>
      </defs>
      <use transform="scale(0.996264)" xlink:href="#CMSS17-67"/>
      <use transform="translate(59.855772 0)scale(0.996264)" xlink:href="#CMSS17-121"/>
      <use transform="translate(102.855913 0)scale(0.996264)" xlink:href="#CMSS17-99"/>
      <use transform="translate(144.494735 0)scale(0.996264)" xlink:href="#CMSS17-108"/>
      <use transform="translate(166.675458 0)scale(0.996264)" xlink:href="#CMSS17-101"/>
      <use transform="translate(208.31428 0)scale(0.996264)" xlink:href="#CMSS17-40"/>
      <use transform="translate(244.748195 0)scale(0.996264)" xlink:href="#CMSS17-54"/>
      <use transform="translate(291.591818 0)scale(0.996264)" xlink:href="#CMSS17-41"/>
     </g>
    </g>
    <g id="line2d_29">
     <path d="M 45.221519 125.554021 
L 61.221519 125.554021 
" style="fill:none;stroke:#d62728;stroke-linecap:square;stroke-width:1.5;"/>
    </g>
    <g id="line2d_30"/>
    <g id="text_18">
     <!-- Cycle(5) -->
     <g transform="translate(67.621519 128.354021)scale(0.08 -0.08)">
      <defs>
       <path d="M 14.59375 58.625 
L 39.09375 58.625 
L 39.09375 65 
L 7.296875 65 
L 7.296875 27.828125 
L 14 27.828125 
C 15.796875 31.96875 19.5 35 24.296875 35 
C 28.796875 35 33.796875 31.078125 33.796875 19.78125 
C 33.796875 7.703125 26.703125 4.171875 21.5 4.171875 
C 15.09375 4.171875 9.203125 8 6.59375 13.296875 
L 3.40625 7.796875 
C 8 0.765625 15.5 -2 21.5 -2 
C 33.09375 -2 42.203125 7.765625 42.203125 19.578125 
C 42.203125 31.71875 34.09375 41.078125 24.40625 41.078125 
C 20.90625 41.078125 17.5 39.890625 14.59375 37.484375 
z
" id="CMSS17-53"/>
      </defs>
      <use transform="scale(0.996264)" xlink:href="#CMSS17-67"/>
      <use transform="translate(59.855772 0)scale(0.996264)" xlink:href="#CMSS17-121"/>
      <use transform="translate(102.855913 0)scale(0.996264)" xlink:href="#CMSS17-99"/>
      <use transform="translate(144.494735 0)scale(0.996264)" xlink:href="#CMSS17-108"/>
      <use transform="translate(166.675458 0)scale(0.996264)" xlink:href="#CMSS17-101"/>
      <use transform="translate(208.31428 0)scale(0.996264)" xlink:href="#CMSS17-40"/>
      <use transform="translate(244.748195 0)scale(0.996264)" xlink:href="#CMSS17-53"/>
      <use transform="translate(291.591818 0)scale(0.996264)" xlink:href="#CMSS17-41"/>
     </g>
    </g>
    <g id="line2d_31">
     <path d="M 45.221519 137.625299 
L 61.221519 137.625299 
" style="fill:none;stroke:#9467bd;stroke-linecap:square;stroke-width:1.5;"/>
    </g>
    <g id="line2d_32"/>
    <g id="text_19">
     <!-- Cycle(4) -->
     <g transform="translate(67.621519 140.425299)scale(0.08 -0.08)">
      <defs>
       <path d="M 35.203125 17 
L 44.296875 17 
L 44.296875 23.078125 
L 35.203125 23.078125 
L 35.203125 65.5 
L 26.40625 65.5 
L 2.59375 23.078125 
L 2.59375 17 
L 27.296875 17 
L 27.296875 0 
L 35.203125 0 
z
M 10.296875 23.078125 
C 16.09375 33.234375 27.59375 53.734375 27.59375 60.703125 
L 27.59375 23.078125 
z
" id="CMSS17-52"/>
      </defs>
      <use transform="scale(0.996264)" xlink:href="#CMSS17-67"/>
      <use transform="translate(59.855772 0)scale(0.996264)" xlink:href="#CMSS17-121"/>
      <use transform="translate(102.855913 0)scale(0.996264)" xlink:href="#CMSS17-99"/>
      <use transform="translate(144.494735 0)scale(0.996264)" xlink:href="#CMSS17-108"/>
      <use transform="translate(166.675458 0)scale(0.996264)" xlink:href="#CMSS17-101"/>
      <use transform="translate(208.31428 0)scale(0.996264)" xlink:href="#CMSS17-40"/>
      <use transform="translate(244.748195 0)scale(0.996264)" xlink:href="#CMSS17-52"/>
      <use transform="translate(291.591818 0)scale(0.996264)" xlink:href="#CMSS17-41"/>
     </g>
    </g>
    <g id="line2d_33">
     <path d="M 45.221519 149.696577 
L 61.221519 149.696577 
" style="fill:none;stroke:#8c564b;stroke-linecap:square;stroke-width:1.5;"/>
    </g>
    <g id="line2d_34"/>
    <g id="text_20">
     <!-- Cycle(3) -->
     <g transform="translate(67.621519 152.496577)scale(0.08 -0.08)">
      <defs>
       <path d="M 15.703125 31.640625 
L 22.5 31.640625 
C 31.90625 31.640625 34.59375 23.546875 34.59375 17.90625 
C 34.59375 10.203125 30.203125 4.171875 23 4.171875 
C 17.40625 4.171875 9.5 6.9375 5 14.25 
C 4.296875 10.796875 4.296875 10.59375 3.90625 8.21875 
C 8.59375 1.375 16.203125 -2 23.203125 -2 
C 34.59375 -2 43 7.390625 43 17.78125 
C 43 25.59375 37.5 32.140625 30 34.609375 
C 36 37.875 40.40625 44 40.40625 51.140625 
C 40.40625 59.453125 32.703125 66.078125 23.296875 66.078125 
C 14.703125 66.078125 8 60.8125 5.203125 55.15625 
C 5.90625 54.1875 7.703125 51.3125 8.59375 49.828125 
C 10.796875 55.65625 16.5 60 23.203125 60 
C 28.796875 60 32.5 56.359375 32.5 51.109375 
C 32.5 45.671875 29 39.734375 23.09375 38.359375 
C 22.703125 38.359375 16.5 37.765625 15.703125 37.671875 
z
" id="CMSS17-51"/>
      </defs>
      <use transform="scale(0.996264)" xlink:href="#CMSS17-67"/>
      <use transform="translate(59.855772 0)scale(0.996264)" xlink:href="#CMSS17-121"/>
      <use transform="translate(102.855913 0)scale(0.996264)" xlink:href="#CMSS17-99"/>
      <use transform="translate(144.494735 0)scale(0.996264)" xlink:href="#CMSS17-108"/>
      <use transform="translate(166.675458 0)scale(0.996264)" xlink:href="#CMSS17-101"/>
      <use transform="translate(208.31428 0)scale(0.996264)" xlink:href="#CMSS17-40"/>
      <use transform="translate(244.748195 0)scale(0.996264)" xlink:href="#CMSS17-51"/>
      <use transform="translate(291.591818 0)scale(0.996264)" xlink:href="#CMSS17-41"/>
     </g>
    </g>
    <g id="line2d_35">
     <path d="M 45.221519 161.767855 
L 61.221519 161.767855 
" style="fill:none;stroke:#e377c2;stroke-linecap:square;stroke-width:1.5;"/>
    </g>
    <g id="line2d_36"/>
    <g id="text_21">
     <!-- Swap -->
     <g transform="translate(67.621519 164.567855)scale(0.08 -0.08)">
      <defs>
       <path d="M 43.703125 65.140625 
C 39.296875 67.71875 34.5 70 26.40625 70 
C 13.5 70 5.203125 60.609375 5.203125 51.03125 
C 5.203125 47.265625 6.296875 43.015625 10.203125 38.671875 
C 14.09375 34.3125 18.5 33.140625 24.09375 31.765625 
C 26.40625 31.15625 30.296875 30.0625 31 29.78125 
C 36.59375 27.609375 39.296875 22.5625 39.296875 17.8125 
C 39.296875 11.59375 34.40625 4.96875 25.703125 4.96875 
C 22.703125 4.96875 13.90625 4.96875 5.59375 12.796875 
L 4.203125 4.96875 
C 12.40625 -1 21.296875 -2 25.796875 -2 
C 38.09375 -2 46.90625 7.625 46.90625 18.53125 
C 46.90625 22.5 45.703125 27.546875 41.5 32.203125 
C 37.40625 36.671875 33.796875 37.65625 25.59375 39.828125 
C 20.90625 41.03125 17.90625 41.828125 15.40625 44.890625 
C 13.703125 47.078125 12.796875 49.15625 12.796875 51.828125 
C 12.796875 57.390625 17.59375 63.4375 26.40625 63.4375 
C 30.796875 63.4375 36.5 62.53125 42.296875 57.1875 
z
" id="CMSS17-83"/>
       <path d="M 62.703125 43 
L 55.09375 43 
L 49.796875 25.015625 
C 48.703125 21.21875 45.59375 10.703125 45.203125 5.796875 
L 45.09375 5.796875 
C 44.90625 8.8125 43.203125 16 40.40625 25.515625 
L 35.296875 43 
L 28.40625 43 
L 23.40625 25.90625 
C 20.90625 17.203125 19 9.796875 18.796875 5.796875 
L 18.703125 5.796875 
C 18.296875 11.703125 14.203125 25.515625 13.59375 27.703125 
L 9.09375 43 
L 1.296875 43 
L 14.296875 0 
L 21.90625 0 
C 27.09375 17.125 31.09375 30.359375 31.40625 37.03125 
C 31.59375 33.75 33.296875 26.671875 34.296875 23.1875 
L 40.90625 0 
L 49.703125 0 
z
" id="CMSS17-119"/>
       <path d="M 15.09375 5.203125 
C 18.40625 2.015625 22.90625 -0.078125 27.703125 -0.078125 
C 37 -0.078125 45 9.421875 45 22.0625 
C 45 33.734375 39 44 30.40625 44 
C 25.40625 44 19.40625 42.21875 14.90625 38.625 
L 14.90625 43.203125 
L 7.5 43.203125 
L 7.5 -19 
L 15.09375 -19 
z
M 15.09375 32.8125 
C 15.90625 34 19.296875 37.734375 24.796875 37.734375 
C 31.796875 37.734375 37.40625 30.625 37.40625 22.0625 
C 37.40625 12.296875 30.59375 6 23.90625 6 
C 21.90625 6 19.796875 6.484375 17.796875 8.171875 
C 15.09375 10.53125 15.09375 12 15.09375 13.390625 
z
" id="CMSS17-112"/>
      </defs>
      <use transform="scale(0.996264)" xlink:href="#CMSS17-83"/>
      <use transform="translate(52.048516 0)scale(0.996264)" xlink:href="#CMSS17-119"/>
      <use transform="translate(113.265607 0)scale(0.996264)" xlink:href="#CMSS17-97"/>
      <use transform="translate(158.187528 0)scale(0.996264)" xlink:href="#CMSS17-112"/>
     </g>
    </g>
    <g id="line2d_37">
     <path d="M 45.221519 173.510355 
L 61.221519 173.510355 
" style="fill:none;stroke:#7f7f7f;stroke-linecap:square;stroke-width:1.5;"/>
    </g>
    <g id="line2d_38"/>
    <g id="text_22">
     <!-- Insertion -->
     <g transform="translate(67.621519 176.310355)scale(0.08 -0.08)">
      <defs>
       <path d="M 17.09375 69 
L 8.703125 69 
L 8.703125 0 
L 17.09375 0 
z
" id="CMSS17-73"/>
      </defs>
      <use transform="scale(0.996264)" xlink:href="#CMSS17-73"/>
      <use transform="translate(25.783926 0)scale(0.996264)" xlink:href="#CMSS17-110"/>
      <use transform="translate(73.988869 0)scale(0.996264)" xlink:href="#CMSS17-115"/>
      <use transform="translate(109.902411 0)scale(0.996264)" xlink:href="#CMSS17-101"/>
      <use transform="translate(151.541233 0)scale(0.996264)" xlink:href="#CMSS17-114"/>
      <use transform="translate(183.451005 0)scale(0.996264)" xlink:href="#CMSS17-116"/>
      <use transform="translate(217.282572 0)scale(0.996264)" xlink:href="#CMSS17-105"/>
      <use transform="translate(239.463295 0)scale(0.996264)" xlink:href="#CMSS17-111"/>
      <use transform="translate(286.306919 0)scale(0.996264)" xlink:href="#CMSS17-110"/>
     </g>
    </g>
    <g id="line2d_39">
     <path d="M 45.221519 185.252855 
L 61.221519 185.252855 
" style="fill:none;stroke:#bcbd22;stroke-linecap:square;stroke-width:1.5;"/>
    </g>
    <g id="line2d_40"/>
    <g id="text_23">
     <!-- Reversal -->
     <g transform="translate(67.621519 188.052855)scale(0.08 -0.08)">
      <defs>
       <path d="M 39.40625 32.953125 
L 39.59375 33.046875 
C 55.203125 38.421875 55.296875 49.171875 55.296875 51.0625 
C 55.296875 60.515625 45.703125 69.578125 31.296875 69.578125 
L 8.90625 69.578125 
L 8.90625 0.5 
L 17.09375 0.5 
L 17.09375 32 
L 31.796875 32 
L 49.5 0.5 
L 57.90625 0.5 
z
M 17.09375 38.078125 
L 17.09375 64 
L 30.203125 64 
C 42.90625 64 47.40625 56.828125 47.40625 51.046875 
C 47.40625 45.65625 43.40625 38.078125 30.203125 38.078125 
z
" id="CMSS17-82"/>
      </defs>
      <use transform="scale(0.996264)" xlink:href="#CMSS17-82"/>
      <use transform="translate(60.416155 0)scale(0.996264)" xlink:href="#CMSS17-101"/>
      <use transform="translate(102.054977 0)scale(0.996264)" xlink:href="#CMSS17-118"/>
      <use transform="translate(145.055119 0)scale(0.996264)" xlink:href="#CMSS17-101"/>
      <use transform="translate(186.693941 0)scale(0.996264)" xlink:href="#CMSS17-114"/>
      <use transform="translate(218.603713 0)scale(0.996264)" xlink:href="#CMSS17-115"/>
      <use transform="translate(254.517255 0)scale(0.996264)" xlink:href="#CMSS17-97"/>
      <use transform="translate(299.439176 0)scale(0.996264)" xlink:href="#CMSS17-108"/>
     </g>
    </g>
    <g id="line2d_41">
     <path d="M 45.221519 196.995355 
L 61.221519 196.995355 
" style="fill:none;stroke:#17becf;stroke-linecap:square;stroke-width:1.5;"/>
    </g>
    <g id="line2d_42"/>
    <g id="text_24">
     <!-- Scramble -->
     <g transform="translate(67.621519 199.795355)scale(0.08 -0.08)">
      <use transform="scale(0.996264)" xlink:href="#CMSS17-83"/>
      <use transform="translate(52.048516 0)scale(0.996264)" xlink:href="#CMSS17-99"/>
      <use transform="translate(93.687338 0)scale(0.996264)" xlink:href="#CMSS17-114"/>
      <use transform="translate(125.597111 0)scale(0.996264)" xlink:href="#CMSS17-97"/>
      <use transform="translate(170.519031 0)scale(0.996264)" xlink:href="#CMSS17-109"/>
      <use transform="translate(244.748286 0)scale(0.996264)" xlink:href="#CMSS17-98"/>
      <use transform="translate(292.953229 0)scale(0.996264)" xlink:href="#CMSS17-108"/>
      <use transform="translate(315.133952 0)scale(0.996264)" xlink:href="#CMSS17-101"/>
     </g>
    </g>
   </g>
  </g>
 </g>
 <defs>
  <clipPath id="pd39bcdb938">
   <rect height="205.54486" width="194.827456" x="38.021519" y="3.00024"/>
  </clipPath>
 </defs>
</svg>
