<?xml version="1.0" encoding="utf-8" standalone="no"?>
<!DOCTYPE svg PUBLIC "-//W3C//DTD SVG 1.1//EN"
  "http://www.w3.org/Graphics/SVG/1.1/DTD/svg11.dtd">
<!-- Created with matplotlib (https://matplotlib.org/) -->
<svg height="249.84pt" version="1.1" viewBox="0 0 249.84 249.84" width="249.84pt" xmlns="http://www.w3.org/2000/svg" xmlns:xlink="http://www.w3.org/1999/xlink">
 <metadata>
  <rdf:RDF xmlns:cc="http://creativecommons.org/ns#" xmlns:dc="http://purl.org/dc/elements/1.1/" xmlns:rdf="http://www.w3.org/1999/02/22-rdf-syntax-ns#">
   <cc:Work>
    <dc:type rdf:resource="http://purl.org/dc/dcmitype/StillImage"/>
    <dc:date>2022-04-22T15:20:36.678422</dc:date>
    <dc:format>image/svg+xml</dc:format>
    <dc:creator>
     <cc:Agent>
      <dc:title>Matplotlib v3.3.4, https://matplotlib.org/</dc:title>
     </cc:Agent>
    </dc:creator>
   </cc:Work>
  </rdf:RDF>
 </metadata>
 <defs>
  <style type="text/css">*{stroke-linecap:butt;stroke-linejoin:round;}</style>
 </defs>
 <g id="figure_1">
  <g id="patch_1">
   <path d="M 0 249.84 
L 249.84 249.84 
L 249.84 0 
L 0 0 
z
" style="fill:#ffffff;"/>
  </g>
  <g id="axes_1">
   <g id="patch_2">
    <path d="M 33.787336 220.7851 
L 246.83976 220.7851 
L 246.83976 3.00024 
L 33.787336 3.00024 
z
" style="fill:#ffffff;"/>
   </g>
   <g id="matplotlib.axis_1">
    <g id="xtick_1">
     <g id="line2d_1">
      <defs>
       <path d="M 0 0 
L 0 3.5 
" id="me4176f6125" style="stroke:#000000;stroke-width:0.8;"/>
      </defs>
      <g>
       <use style="stroke:#000000;stroke-width:0.8;" x="43.471537" xlink:href="#me4176f6125" y="220.7851"/>
      </g>
     </g>
     <g id="text_1">
      <!-- $\mathdefault{10^{2}}$ -->
      <g transform="translate(37.410898 233.319902)scale(0.08 -0.08)">
       <defs>
        <path d="M 26.59375 63.40625 
C 26.59375 65.5 26.5 65.5 25.09375 65.5 
C 21.203125 61.1875 15.296875 59.796875 9.703125 59.796875 
C 9.40625 59.796875 8.90625 59.796875 8.796875 59.5 
C 8.703125 59.296875 8.703125 59.09375 8.703125 57 
C 11.796875 57 17 57.59375 21 59.984375 
L 21 7.203125 
C 21 3.6875 20.796875 2.5 12.203125 2.5 
L 9.203125 2.5 
L 9.203125 0 
C 14 0 19 0 23.796875 0 
C 28.59375 0 33.59375 0 38.40625 0 
L 38.40625 2.5 
L 35.40625 2.5 
C 26.796875 2.5 26.59375 3.59375 26.59375 7.15625 
z
" id="CMR17-49"/>
        <path d="M 42 31.640625 
C 42 37.75 41.90625 48.125 37.703125 56.109375 
C 34 63.109375 28.09375 65.59375 22.90625 65.59375 
C 18.09375 65.59375 12 63.40625 8.203125 56.203125 
C 4.203125 48.71875 3.796875 39.4375 3.796875 31.640625 
C 3.796875 25.953125 3.90625 17.28125 7 9.671875 
C 11.296875 -0.609375 19 -2 22.90625 -2 
C 27.5 -2 34.5 -0.109375 38.59375 9.375 
C 41.59375 16.28125 42 24.359375 42 31.640625 
z
M 22.90625 -0.40625 
C 16.5 -0.40625 12.703125 5.078125 11.296875 12.6875 
C 10.203125 18.5625 10.203125 27.15625 10.203125 32.75 
C 10.203125 40.4375 10.203125 46.828125 11.5 52.921875 
C 13.40625 61.390625 19 64 22.90625 64 
C 27 64 32.296875 61.296875 34.203125 53.125 
C 35.5 47.4375 35.59375 40.734375 35.59375 32.75 
C 35.59375 26.25 35.59375 18.265625 34.40625 12.375 
C 32.296875 1.484375 26.40625 -0.40625 22.90625 -0.40625 
z
" id="CMR17-48"/>
        <path d="M 41.703125 15.453125 
L 39.90625 15.453125 
C 38.90625 8.375 38.09375 7.171875 37.703125 6.5625 
C 37.203125 5.765625 30 5.765625 28.59375 5.765625 
L 9.40625 5.765625 
C 13 9.671875 20 16.75 28.5 24.953125 
C 34.59375 30.734375 41.703125 37.53125 41.703125 47.421875 
C 41.703125 59.21875 32.296875 66 21.796875 66 
C 10.796875 66 4.09375 56.3125 4.09375 47.34375 
C 4.09375 43.4375 7 42.9375 8.203125 42.9375 
C 9.203125 42.9375 12.203125 43.546875 12.203125 47.03125 
C 12.203125 50.109375 9.59375 51 8.203125 51 
C 7.59375 51 7 50.90625 6.59375 50.703125 
C 8.5 59.21875 14.296875 63.40625 20.40625 63.40625 
C 29.09375 63.40625 34.796875 56.515625 34.796875 47.421875 
C 34.796875 38.734375 29.703125 31.25 24 24.75 
L 4.09375 2.28125 
L 4.09375 0 
L 39.296875 0 
z
" id="CMR17-50"/>
       </defs>
       <use transform="scale(0.996264)" xlink:href="#CMR17-49"/>
       <use transform="translate(45.690477 0)scale(0.996264)" xlink:href="#CMR17-48"/>
       <use transform="translate(91.380954 36.153639)scale(0.697382)" xlink:href="#CMR17-50"/>
      </g>
     </g>
    </g>
    <g id="xtick_2">
     <g id="line2d_2">
      <g>
       <use style="stroke:#000000;stroke-width:0.8;" x="82.208341" xlink:href="#me4176f6125" y="220.7851"/>
      </g>
     </g>
     <g id="text_2">
      <!-- $\mathdefault{10^{3}}$ -->
      <g transform="translate(76.147702 233.319902)scale(0.08 -0.08)">
       <defs>
        <path d="M 22.09375 33.703125 
C 31 33.703125 34.90625 25.96875 34.90625 17.03125 
C 34.90625 5 28.5 0.390625 22.703125 0.390625 
C 17.40625 0.390625 8.796875 3.03125 6.09375 10.828125 
C 6.59375 10.625 7.09375 10.625 7.59375 10.625 
C 10 10.625 11.796875 12.21875 11.796875 14.8125 
C 11.796875 17.703125 9.59375 19 7.59375 19 
C 5.90625 19 3.296875 18.203125 3.296875 14.46875 
C 3.296875 5.234375 12.296875 -2 22.90625 -2 
C 34 -2 42.5 6.71875 42.5 16.953125 
C 42.5 26.671875 34.5 33.703125 25 34.796875 
C 32.59375 36.375 39.90625 43.0625 39.90625 52.015625 
C 39.90625 59.6875 32 65.296875 23 65.296875 
C 13.90625 65.296875 5.90625 59.828125 5.90625 52.015625 
C 5.90625 48.59375 8.5 48 9.796875 48 
C 11.90625 48 13.703125 49.296875 13.703125 51.890625 
C 13.703125 54.46875 11.90625 55.765625 9.796875 55.765625 
C 9.40625 55.765625 8.90625 55.765625 8.5 55.578125 
C 11.40625 61.859375 19.296875 63 22.796875 63 
C 26.296875 63 32.90625 61.328125 32.90625 51.875 
C 32.90625 49.109375 32.5 44.1875 29.09375 39.84375 
C 26.09375 36 22.703125 36 19.40625 35.6875 
C 18.90625 35.6875 16.59375 35.453125 16.203125 35.453125 
C 15.5 35.359375 15.09375 35.265625 15.09375 34.5 
C 15.09375 33.796875 15.203125 33.703125 17.203125 33.703125 
z
" id="CMR17-51"/>
       </defs>
       <use transform="scale(0.996264)" xlink:href="#CMR17-49"/>
       <use transform="translate(45.690477 0)scale(0.996264)" xlink:href="#CMR17-48"/>
       <use transform="translate(91.380954 36.153639)scale(0.697382)" xlink:href="#CMR17-51"/>
      </g>
     </g>
    </g>
    <g id="xtick_3">
     <g id="line2d_3">
      <g>
       <use style="stroke:#000000;stroke-width:0.8;" x="120.945146" xlink:href="#me4176f6125" y="220.7851"/>
      </g>
     </g>
     <g id="text_3">
      <!-- $\mathdefault{10^{4}}$ -->
      <g transform="translate(114.884507 233.319902)scale(0.08 -0.08)">
       <defs>
        <path d="M 33.59375 64.40625 
C 33.59375 66.5 33.5 66.5 31.703125 66.5 
L 2 19.59375 
L 2 17 
L 27.796875 17 
L 27.796875 7.140625 
C 27.796875 3.5 27.59375 2.5 20.59375 2.5 
L 18.703125 2.5 
L 18.703125 0 
C 21.90625 0 27.296875 0 30.703125 0 
C 34.09375 0 39.5 0 42.703125 0 
L 42.703125 2.5 
L 40.796875 2.5 
C 33.796875 2.5 33.59375 3.5 33.59375 7.140625 
L 33.59375 17 
L 43.796875 17 
L 43.796875 19.59375 
L 33.59375 19.59375 
z
M 28.09375 57.859375 
L 28.09375 19.59375 
L 4 19.59375 
z
" id="CMR17-52"/>
       </defs>
       <use transform="scale(0.996264)" xlink:href="#CMR17-49"/>
       <use transform="translate(45.690477 0)scale(0.996264)" xlink:href="#CMR17-48"/>
       <use transform="translate(91.380954 36.153639)scale(0.697382)" xlink:href="#CMR17-52"/>
      </g>
     </g>
    </g>
    <g id="xtick_4">
     <g id="line2d_4">
      <g>
       <use style="stroke:#000000;stroke-width:0.8;" x="159.68195" xlink:href="#me4176f6125" y="220.7851"/>
      </g>
     </g>
     <g id="text_4">
      <!-- $\mathdefault{10^{5}}$ -->
      <g transform="translate(153.621311 233.319902)scale(0.08 -0.08)">
       <defs>
        <path d="M 11.40625 57.6875 
C 12.40625 57.28125 16.5 56 20.703125 56 
C 30 56 35.09375 61.109375 38 64.0625 
C 38 64.953125 38 65.5 37.40625 65.5 
C 37.296875 65.5 37.09375 65.5 36.296875 65.046875 
C 32.796875 63.40625 28.703125 62.078125 23.703125 62.078125 
C 20.703125 62.078125 16.203125 62.484375 11.296875 64.671875 
C 10.203125 65.171875 10 65.171875 9.90625 65.171875 
C 9.40625 65.171875 9.296875 65.0625 9.296875 63.078125 
L 9.296875 34.421875 
C 9.296875 32.640625 9.296875 32.140625 10.296875 32.140625 
C 10.796875 32.140625 11 32.34375 11.5 33.03125 
C 14.703125 37.515625 19.09375 39.40625 24.09375 39.40625 
C 27.59375 39.40625 35.09375 37.21875 35.09375 20.140625 
C 35.09375 16.953125 35.09375 11.171875 32.09375 6.578125 
C 29.59375 2.484375 25.703125 0.390625 21.40625 0.390625 
C 14.796875 0.390625 8.09375 5 6.296875 12.71875 
C 6.703125 12.609375 7.5 12.421875 7.90625 12.421875 
C 9.203125 12.421875 11.703125 13.125 11.703125 16.21875 
C 11.703125 18.90625 9.796875 20 7.90625 20 
C 5.59375 20 4.09375 18.59375 4.09375 15.796875 
C 4.09375 7.09375 11 -2 21.59375 -2 
C 31.90625 -2 41.703125 6.875 41.703125 19.75 
C 41.703125 31.71875 33.90625 41 24.203125 41 
C 19.09375 41 14.796875 39.109375 11.40625 35.53125 
z
" id="CMR17-53"/>
       </defs>
       <use transform="scale(0.996264)" xlink:href="#CMR17-49"/>
       <use transform="translate(45.690477 0)scale(0.996264)" xlink:href="#CMR17-48"/>
       <use transform="translate(91.380954 36.153639)scale(0.697382)" xlink:href="#CMR17-53"/>
      </g>
     </g>
    </g>
    <g id="xtick_5">
     <g id="line2d_5">
      <g>
       <use style="stroke:#000000;stroke-width:0.8;" x="198.418755" xlink:href="#me4176f6125" y="220.7851"/>
      </g>
     </g>
     <g id="text_5">
      <!-- $\mathdefault{10^{6}}$ -->
      <g transform="translate(192.358116 233.319902)scale(0.08 -0.08)">
       <defs>
        <path d="M 10.59375 34 
C 10.59375 57.65625 21.796875 63 28.296875 63 
C 30.40625 63 35.5 62.640625 37.5 59 
C 35.90625 59 32.90625 59 32.90625 55.515625 
C 32.90625 52.828125 35.09375 51.921875 36.5 51.921875 
C 37.40625 51.921875 40.09375 52.3125 40.09375 55.625 
C 40.09375 61.78125 35.09375 65.296875 28.203125 65.296875 
C 16.296875 65.296875 3.796875 52.96875 3.796875 31 
C 3.796875 3.953125 15.09375 -2 23.09375 -2 
C 32.796875 -2 42 6.671875 42 20.046875 
C 42 32.515625 33.90625 41.59375 23.703125 41.59375 
C 17.59375 41.59375 13.09375 37.609375 10.59375 30.625 
z
M 23.09375 0.390625 
C 10.796875 0.390625 10.796875 18.75 10.796875 22.4375 
C 10.796875 29.625 14.203125 40 23.5 40 
C 25.203125 40 30.09375 40 33.40625 33.125 
C 35.203125 29.21875 35.203125 25.140625 35.203125 20.140625 
C 35.203125 14.75 35.203125 10.78125 33.09375 6.78125 
C 30.90625 2.671875 27.703125 0.390625 23.09375 0.390625 
z
" id="CMR17-54"/>
       </defs>
       <use transform="scale(0.996264)" xlink:href="#CMR17-49"/>
       <use transform="translate(45.690477 0)scale(0.996264)" xlink:href="#CMR17-48"/>
       <use transform="translate(91.380954 36.153639)scale(0.697382)" xlink:href="#CMR17-54"/>
      </g>
     </g>
    </g>
    <g id="xtick_6">
     <g id="line2d_6">
      <g>
       <use style="stroke:#000000;stroke-width:0.8;" x="237.155559" xlink:href="#me4176f6125" y="220.7851"/>
      </g>
     </g>
     <g id="text_6">
      <!-- $\mathdefault{10^{7}}$ -->
      <g transform="translate(231.09492 233.319902)scale(0.08 -0.08)">
       <defs>
        <path d="M 45.09375 61.578125 
L 45.09375 63.765625 
L 21.59375 63.765625 
C 9.90625 63.765625 9.703125 65.078125 9.296875 67 
L 7.5 67 
L 4.59375 48.34375 
L 6.40625 48.34375 
C 6.703125 50.234375 7.40625 55.3125 8.59375 57.203125 
C 9.203125 58 16.59375 58 18.296875 58 
L 40.296875 58 
L 29.203125 41.578125 
C 21.796875 30.53125 16.703125 15.609375 16.703125 2.578125 
C 16.703125 1.390625 16.703125 -2 20.296875 -2 
C 23.90625 -2 23.90625 1.390625 23.90625 2.671875 
L 23.90625 7.265625 
C 23.90625 23.5625 26.703125 34.3125 31.296875 41.1875 
z
" id="CMR17-55"/>
       </defs>
       <use transform="scale(0.996264)" xlink:href="#CMR17-49"/>
       <use transform="translate(45.690477 0)scale(0.996264)" xlink:href="#CMR17-48"/>
       <use transform="translate(91.380954 36.153639)scale(0.697382)" xlink:href="#CMR17-55"/>
      </g>
     </g>
    </g>
    <g id="xtick_7">
     <g id="line2d_7">
      <defs>
       <path d="M 0 0 
L 0 2 
" id="m991b8dbc24" style="stroke:#000000;stroke-width:0.6;"/>
      </defs>
      <g>
       <use style="stroke:#000000;stroke-width:0.6;" x="34.877825" xlink:href="#m991b8dbc24" y="220.7851"/>
      </g>
     </g>
    </g>
    <g id="xtick_8">
     <g id="line2d_8">
      <g>
       <use style="stroke:#000000;stroke-width:0.6;" x="37.47113" xlink:href="#m991b8dbc24" y="220.7851"/>
      </g>
     </g>
    </g>
    <g id="xtick_9">
     <g id="line2d_9">
      <g>
       <use style="stroke:#000000;stroke-width:0.6;" x="39.717553" xlink:href="#m991b8dbc24" y="220.7851"/>
      </g>
     </g>
    </g>
    <g id="xtick_10">
     <g id="line2d_10">
      <g>
       <use style="stroke:#000000;stroke-width:0.6;" x="41.699038" xlink:href="#m991b8dbc24" y="220.7851"/>
      </g>
     </g>
    </g>
    <g id="xtick_11">
     <g id="line2d_11">
      <g>
       <use style="stroke:#000000;stroke-width:0.6;" x="55.132477" xlink:href="#m991b8dbc24" y="220.7851"/>
      </g>
     </g>
    </g>
    <g id="xtick_12">
     <g id="line2d_12">
      <g>
       <use style="stroke:#000000;stroke-width:0.6;" x="61.95369" xlink:href="#m991b8dbc24" y="220.7851"/>
      </g>
     </g>
    </g>
    <g id="xtick_13">
     <g id="line2d_13">
      <g>
       <use style="stroke:#000000;stroke-width:0.6;" x="66.793417" xlink:href="#m991b8dbc24" y="220.7851"/>
      </g>
     </g>
    </g>
    <g id="xtick_14">
     <g id="line2d_14">
      <g>
       <use style="stroke:#000000;stroke-width:0.6;" x="70.547401" xlink:href="#m991b8dbc24" y="220.7851"/>
      </g>
     </g>
    </g>
    <g id="xtick_15">
     <g id="line2d_15">
      <g>
       <use style="stroke:#000000;stroke-width:0.6;" x="73.61463" xlink:href="#m991b8dbc24" y="220.7851"/>
      </g>
     </g>
    </g>
    <g id="xtick_16">
     <g id="line2d_16">
      <g>
       <use style="stroke:#000000;stroke-width:0.6;" x="76.207935" xlink:href="#m991b8dbc24" y="220.7851"/>
      </g>
     </g>
    </g>
    <g id="xtick_17">
     <g id="line2d_17">
      <g>
       <use style="stroke:#000000;stroke-width:0.6;" x="78.454357" xlink:href="#m991b8dbc24" y="220.7851"/>
      </g>
     </g>
    </g>
    <g id="xtick_18">
     <g id="line2d_18">
      <g>
       <use style="stroke:#000000;stroke-width:0.6;" x="80.435842" xlink:href="#m991b8dbc24" y="220.7851"/>
      </g>
     </g>
    </g>
    <g id="xtick_19">
     <g id="line2d_19">
      <g>
       <use style="stroke:#000000;stroke-width:0.6;" x="93.869282" xlink:href="#m991b8dbc24" y="220.7851"/>
      </g>
     </g>
    </g>
    <g id="xtick_20">
     <g id="line2d_20">
      <g>
       <use style="stroke:#000000;stroke-width:0.6;" x="100.690494" xlink:href="#m991b8dbc24" y="220.7851"/>
      </g>
     </g>
    </g>
    <g id="xtick_21">
     <g id="line2d_21">
      <g>
       <use style="stroke:#000000;stroke-width:0.6;" x="105.530222" xlink:href="#m991b8dbc24" y="220.7851"/>
      </g>
     </g>
    </g>
    <g id="xtick_22">
     <g id="line2d_22">
      <g>
       <use style="stroke:#000000;stroke-width:0.6;" x="109.284206" xlink:href="#m991b8dbc24" y="220.7851"/>
      </g>
     </g>
    </g>
    <g id="xtick_23">
     <g id="line2d_23">
      <g>
       <use style="stroke:#000000;stroke-width:0.6;" x="112.351434" xlink:href="#m991b8dbc24" y="220.7851"/>
      </g>
     </g>
    </g>
    <g id="xtick_24">
     <g id="line2d_24">
      <g>
       <use style="stroke:#000000;stroke-width:0.6;" x="114.944739" xlink:href="#m991b8dbc24" y="220.7851"/>
      </g>
     </g>
    </g>
    <g id="xtick_25">
     <g id="line2d_25">
      <g>
       <use style="stroke:#000000;stroke-width:0.6;" x="117.191162" xlink:href="#m991b8dbc24" y="220.7851"/>
      </g>
     </g>
    </g>
    <g id="xtick_26">
     <g id="line2d_26">
      <g>
       <use style="stroke:#000000;stroke-width:0.6;" x="119.172647" xlink:href="#m991b8dbc24" y="220.7851"/>
      </g>
     </g>
    </g>
    <g id="xtick_27">
     <g id="line2d_27">
      <g>
       <use style="stroke:#000000;stroke-width:0.6;" x="132.606086" xlink:href="#m991b8dbc24" y="220.7851"/>
      </g>
     </g>
    </g>
    <g id="xtick_28">
     <g id="line2d_28">
      <g>
       <use style="stroke:#000000;stroke-width:0.6;" x="139.427299" xlink:href="#m991b8dbc24" y="220.7851"/>
      </g>
     </g>
    </g>
    <g id="xtick_29">
     <g id="line2d_29">
      <g>
       <use style="stroke:#000000;stroke-width:0.6;" x="144.267026" xlink:href="#m991b8dbc24" y="220.7851"/>
      </g>
     </g>
    </g>
    <g id="xtick_30">
     <g id="line2d_30">
      <g>
       <use style="stroke:#000000;stroke-width:0.6;" x="148.02101" xlink:href="#m991b8dbc24" y="220.7851"/>
      </g>
     </g>
    </g>
    <g id="xtick_31">
     <g id="line2d_31">
      <g>
       <use style="stroke:#000000;stroke-width:0.6;" x="151.088239" xlink:href="#m991b8dbc24" y="220.7851"/>
      </g>
     </g>
    </g>
    <g id="xtick_32">
     <g id="line2d_32">
      <g>
       <use style="stroke:#000000;stroke-width:0.6;" x="153.681543" xlink:href="#m991b8dbc24" y="220.7851"/>
      </g>
     </g>
    </g>
    <g id="xtick_33">
     <g id="line2d_33">
      <g>
       <use style="stroke:#000000;stroke-width:0.6;" x="155.927966" xlink:href="#m991b8dbc24" y="220.7851"/>
      </g>
     </g>
    </g>
    <g id="xtick_34">
     <g id="line2d_34">
      <g>
       <use style="stroke:#000000;stroke-width:0.6;" x="157.909451" xlink:href="#m991b8dbc24" y="220.7851"/>
      </g>
     </g>
    </g>
    <g id="xtick_35">
     <g id="line2d_35">
      <g>
       <use style="stroke:#000000;stroke-width:0.6;" x="171.34289" xlink:href="#m991b8dbc24" y="220.7851"/>
      </g>
     </g>
    </g>
    <g id="xtick_36">
     <g id="line2d_36">
      <g>
       <use style="stroke:#000000;stroke-width:0.6;" x="178.164103" xlink:href="#m991b8dbc24" y="220.7851"/>
      </g>
     </g>
    </g>
    <g id="xtick_37">
     <g id="line2d_37">
      <g>
       <use style="stroke:#000000;stroke-width:0.6;" x="183.00383" xlink:href="#m991b8dbc24" y="220.7851"/>
      </g>
     </g>
    </g>
    <g id="xtick_38">
     <g id="line2d_38">
      <g>
       <use style="stroke:#000000;stroke-width:0.6;" x="186.757814" xlink:href="#m991b8dbc24" y="220.7851"/>
      </g>
     </g>
    </g>
    <g id="xtick_39">
     <g id="line2d_39">
      <g>
       <use style="stroke:#000000;stroke-width:0.6;" x="189.825043" xlink:href="#m991b8dbc24" y="220.7851"/>
      </g>
     </g>
    </g>
    <g id="xtick_40">
     <g id="line2d_40">
      <g>
       <use style="stroke:#000000;stroke-width:0.6;" x="192.418348" xlink:href="#m991b8dbc24" y="220.7851"/>
      </g>
     </g>
    </g>
    <g id="xtick_41">
     <g id="line2d_41">
      <g>
       <use style="stroke:#000000;stroke-width:0.6;" x="194.66477" xlink:href="#m991b8dbc24" y="220.7851"/>
      </g>
     </g>
    </g>
    <g id="xtick_42">
     <g id="line2d_42">
      <g>
       <use style="stroke:#000000;stroke-width:0.6;" x="196.646256" xlink:href="#m991b8dbc24" y="220.7851"/>
      </g>
     </g>
    </g>
    <g id="xtick_43">
     <g id="line2d_43">
      <g>
       <use style="stroke:#000000;stroke-width:0.6;" x="210.079695" xlink:href="#m991b8dbc24" y="220.7851"/>
      </g>
     </g>
    </g>
    <g id="xtick_44">
     <g id="line2d_44">
      <g>
       <use style="stroke:#000000;stroke-width:0.6;" x="216.900907" xlink:href="#m991b8dbc24" y="220.7851"/>
      </g>
     </g>
    </g>
    <g id="xtick_45">
     <g id="line2d_45">
      <g>
       <use style="stroke:#000000;stroke-width:0.6;" x="221.740635" xlink:href="#m991b8dbc24" y="220.7851"/>
      </g>
     </g>
    </g>
    <g id="xtick_46">
     <g id="line2d_46">
      <g>
       <use style="stroke:#000000;stroke-width:0.6;" x="225.494619" xlink:href="#m991b8dbc24" y="220.7851"/>
      </g>
     </g>
    </g>
    <g id="xtick_47">
     <g id="line2d_47">
      <g>
       <use style="stroke:#000000;stroke-width:0.6;" x="228.561847" xlink:href="#m991b8dbc24" y="220.7851"/>
      </g>
     </g>
    </g>
    <g id="xtick_48">
     <g id="line2d_48">
      <g>
       <use style="stroke:#000000;stroke-width:0.6;" x="231.155152" xlink:href="#m991b8dbc24" y="220.7851"/>
      </g>
     </g>
    </g>
    <g id="xtick_49">
     <g id="line2d_49">
      <g>
       <use style="stroke:#000000;stroke-width:0.6;" x="233.401575" xlink:href="#m991b8dbc24" y="220.7851"/>
      </g>
     </g>
    </g>
    <g id="xtick_50">
     <g id="line2d_50">
      <g>
       <use style="stroke:#000000;stroke-width:0.6;" x="235.38306" xlink:href="#m991b8dbc24" y="220.7851"/>
      </g>
     </g>
    </g>
    <g id="text_7">
     <!-- number of evaluations (log scale) -->
     <g transform="translate(81.358816 244.847232)scale(0.08 -0.08)">
      <defs>
       <path d="M 40.90625 29.328125 
C 40.90625 35.671875 39.40625 44 28.09375 44 
C 21.703125 44 17.5 40.71875 14.703125 37.328125 
L 14.703125 43.09375 
L 7.40625 43.09375 
L 7.40625 0 
L 15 0 
L 15 24.359375 
C 15 30.6875 17.40625 37.9375 24.203125 37.9375 
C 33 37.9375 33.296875 32 33.296875 28.578125 
L 33.296875 0 
L 40.90625 0 
z
" id="CMSS17-110"/>
       <path d="M 40.90625 42.796875 
L 33.296875 42.796875 
L 33.296875 15.1875 
C 33.296875 7.78125 27.90625 4.78125 22.203125 4.78125 
C 15.59375 4.78125 15 6.984375 15 11.078125 
L 15 42.796875 
L 7.40625 42.796875 
L 7.40625 10.59375 
C 7.40625 2.796875 10.09375 -1 17 -1 
C 20.40625 -1 28.09375 -0.203125 33.5 4.78125 
L 33.5 0 
L 40.90625 0 
z
" id="CMSS17-117"/>
       <path d="M 67 29.328125 
C 67 36.0625 65.296875 44 54.09375 44 
C 46.59375 44 42.09375 39.3125 40.09375 36.421875 
C 38.296875 41.71875 34.09375 44 28.09375 44 
C 21.296875 44 17 40.125 14.703125 37.328125 
L 14.703125 43.09375 
L 7.40625 43.09375 
L 7.40625 0 
L 15 0 
L 15 24.359375 
C 15 30.296875 17.203125 37.9375 24.296875 37.9375 
C 33.40625 37.9375 33.40625 31.5 33.40625 28.578125 
L 33.40625 0 
L 41 0 
L 41 24.359375 
C 41 30.296875 43.203125 37.9375 50.296875 37.9375 
C 59.40625 37.9375 59.40625 31.5 59.40625 28.578125 
L 59.40625 0 
L 67 0 
z
" id="CMSS17-109"/>
       <path d="M 14.90625 69 
L 7.5 69 
L 7.5 -0.203125 
L 15.09375 -0.203125 
L 15.09375 4.28125 
C 18.90625 0.59375 23.5 -1 27.59375 -1 
C 37.203125 -1 45 8.578125 45 21.125 
C 45 32.59375 39 43.0625 30.09375 43.0625 
C 23.796875 43.0625 18.203125 40.484375 14.90625 37.796875 
z
M 15.09375 31.96875 
C 17.296875 34.71875 20.40625 37 24.796875 37 
C 30.703125 37 37.40625 32.765625 37.40625 21.125 
C 37.40625 8.71875 29.40625 5.078125 23.90625 5.078125 
C 21.90625 5.078125 19.796875 5.5625 17.796875 7.25 
C 15.09375 9.609375 15.09375 11.078125 15.09375 12.453125 
z
" id="CMSS17-98"/>
       <path d="M 39.09375 21.515625 
C 39.09375 24.84375 38.90625 31.296875 35.703125 36.640625 
C 32.203125 42.390625 26.5 44 22.203125 44 
C 11.796875 44 3 34.1875 3 21.484375 
C 3 9.09375 12.09375 -1 23.59375 -1 
C 28.09375 -1 33.59375 0.296875 38.59375 3.875 
C 38.59375 4.28125 38.40625 6.46875 38.296875 6.5625 
C 38.296875 6.765625 38 9.84375 38 10.25 
C 33.203125 6.359375 27.703125 5.078125 23.703125 5.078125 
C 17.296875 5.078125 10.40625 10.421875 10.09375 21.515625 
z
M 10.90625 27 
C 12.203125 32.5625 16.59375 37.828125 22.203125 37.828125 
C 23.703125 37.828125 30.703125 37.828125 32.5 27 
z
" id="CMSS17-101"/>
       <path d="M 14.90625 21.296875 
C 14.90625 30.703125 21.796875 37 30.59375 37 
L 30.59375 43.578125 
C 24.203125 43.578125 18.203125 40.390625 14.59375 35.203125 
L 14.59375 43.09375 
L 7.5 43.09375 
L 7.5 0 
L 14.90625 0 
z
" id="CMSS17-114"/>
       <path d="M 44.203125 21.1875 
C 44.203125 34 34.703125 44 23.5 44 
C 12 44 2.703125 33.703125 2.703125 21.1875 
C 2.703125 8.5 12.296875 -1 23.40625 -1 
C 34.796875 -1 44.203125 8.796875 44.203125 21.1875 
z
M 23.5 5.265625 
C 16.40625 5.265625 10.296875 11.078125 10.296875 22 
C 10.296875 33.609375 17.40625 37.921875 23.40625 37.921875 
C 29.90625 37.921875 36.59375 33.21875 36.59375 22 
C 36.59375 10.671875 30.09375 5.265625 23.5 5.265625 
z
" id="CMSS17-111"/>
       <path d="M 16.796875 37 
L 26.90625 37 
L 26.90625 42.765625 
L 16.59375 42.765625 
L 16.59375 55.609375 
C 16.59375 62.71875 22 63.9375 25.09375 63.9375 
C 26.09375 63.9375 28.90625 63.9375 32.5 62.640625 
L 32.5 69.203125 
C 30.203125 69.703125 27.40625 70 25.203125 70 
C 15.90625 70 9.40625 62.390625 9.40625 52.484375 
L 9.40625 42.765625 
L 2.5 42.765625 
L 2.5 37 
L 9.40625 37 
L 9.40625 0 
L 16.796875 0 
z
" id="CMSS17-102"/>
       <path d="M 41.796875 43 
L 34 43 
L 27.296875 24.3125 
C 25.203125 18.203125 22.203125 9.796875 21.703125 5.5 
L 21.59375 5.5 
C 21.40625 7.3125 20.59375 9.90625 20.09375 11.703125 
C 19.5 13.90625 18.703125 16.5 18.09375 18.3125 
L 9.296875 43 
L 1.296875 43 
L 17.09375 0 
L 26 0 
z
" id="CMSS17-118"/>
       <path d="M 37.59375 27.984375 
C 37.59375 37.375 30.90625 43.875 21.90625 43.875 
C 17.5 43.875 12.703125 43.078125 7.203125 39.890625 
L 7.796875 33.359375 
C 10.296875 35.125 14.59375 38 21.796875 38 
C 26.90625 38 30 34.0625 30 27.84375 
L 30 24 
C 14 24 4 19.34375 4 11.34375 
C 4 7.203125 6.5 -1 14.796875 -1 
C 16.296875 -1 24.40625 -1 30.203125 3.390625 
L 30.203125 -0.296875 
L 37.59375 -0.296875 
z
M 30 12.75 
C 30 10.953125 30 8.5625 27 6.78125 
C 24.40625 5.078125 21.09375 5.078125 19.703125 5.078125 
C 14.703125 5.078125 11.296875 7.984375 11.296875 11.625 
C 11.296875 18.921875 26.90625 18.921875 30 18.921875 
z
" id="CMSS17-97"/>
       <path d="M 14.796875 69 
L 7.40625 69 
L 7.40625 0 
L 14.796875 0 
z
" id="CMSS17-108"/>
       <path d="M 16.703125 37 
L 29.703125 37 
L 29.703125 42.765625 
L 16.703125 42.765625 
L 16.703125 55 
L 9.59375 55 
L 9.59375 42.765625 
L 1.703125 42.765625 
L 1.703125 37 
L 9.40625 37 
L 9.40625 11.703125 
C 9.40625 6 10.703125 -1 17.296875 -1 
C 22.296875 -1 26.90625 0.390625 31.296875 2.6875 
L 29.703125 8.5625 
C 27.296875 6.46875 24.40625 5.265625 21.296875 5.265625 
C 16.90625 5.265625 16.703125 10.875 16.703125 13.375 
z
" id="CMSS17-116"/>
       <path d="M 15.296875 65.359375 
L 6.90625 65.359375 
L 6.90625 57 
L 15.296875 57 
z
M 14.796875 42.796875 
L 7.40625 42.796875 
L 7.40625 0 
L 14.796875 0 
z
" id="CMSS17-105"/>
       <path d="M 32.203125 41.046875 
C 26.296875 43.859375 21.703125 43.859375 18.703125 43.859375 
C 11.59375 43.859375 3.09375 41.375 3.09375 31.296875 
C 3.09375 21.234375 14.09375 19.03125 17.09375 18.421875 
C 21.703125 17.53125 26.796875 16.53125 26.796875 11.5625 
C 26.796875 5.265625 19.59375 5.265625 18.296875 5.265625 
C 14.296875 5.265625 8.796875 6.359375 3.796875 9.96875 
L 2.59375 3.28125 
C 8.296875 0 13.796875 -1 18.40625 -1 
C 30.703125 -1 33.796875 6.5 33.796875 12.203125 
C 33.796875 17.09375 31 20.390625 29.09375 21.890625 
C 25.796875 24.5 24.59375 24.796875 16.40625 26.5 
C 15 26.703125 10.09375 27.796875 10.09375 32.28125 
C 10.09375 38 16.40625 38 17.796875 38 
C 24.296875 38 28.296875 35.984375 31 34.5 
z
" id="CMSS17-115"/>
       <path d="M 25.203125 74.5 
C 19.796875 69.015625 7.40625 56.265625 7.40625 24.8125 
C 7.40625 -6.765625 19.796875 -19.421875 25.203125 -25 
L 31.296875 -25 
C 19 -12.25 15 5.578125 15 24.703125 
C 15 43.71875 18.796875 61.65625 31.296875 74.5 
z
" id="CMSS17-40"/>
       <path d="M 44.5 43.875 
C 38.796875 43.875 33.90625 42.78125 29.90625 40.890625 
C 26.59375 43.390625 23.203125 43.875 20.90625 43.875 
C 12.203125 43.875 5.59375 36.703125 5.59375 28.34375 
C 5.59375 22.9375 8.59375 18.859375 8.796875 18.671875 
C 7 16.171875 6 13.484375 6 10.5 
C 6 7 7.40625 4.515625 8.5 3.125 
C 3.296875 -0.046875 2.59375 -4.90625 2.59375 -6.796875 
C 2.59375 -14.03125 11.703125 -20 23.40625 -20 
C 35.203125 -20 44.296875 -14.03125 44.296875 -6.6875 
C 44.296875 7 29 7 24.796875 7 
L 16.703125 7 
C 15.203125 7 11.203125 7 11.203125 12.359375 
C 11.203125 14.390625 12.09375 15.6875 12.203125 15.78125 
C 13.703125 14.6875 16.796875 13 20.90625 13 
C 29.203125 13 36.09375 19.96875 36.09375 28.546875 
C 36.09375 33.3125 33.90625 36.796875 33 38 
L 33.296875 38 
C 33.59375 38 37.796875 38 39.296875 38 
C 42.5 38 42.796875 37.953125 45.59375 37.796875 
z
M 20.90625 18.46875 
C 17.5 18.46875 12.703125 20.546875 12.703125 28.484375 
C 12.703125 37.109375 18.203125 38.5 20.796875 38.5 
C 24.203125 38.5 29 36.421875 29 28.484375 
C 29 19.859375 23.5 18.46875 20.90625 18.46875 
z
M 24.703125 -0.15625 
C 27.09375 -0.15625 37.203125 -0.15625 37.203125 -6.90625 
C 37.203125 -11.15625 31 -14.515625 23.5 -14.515625 
C 15.90625 -14.515625 9.703125 -11.25 9.703125 -6.796875 
C 9.703125 -6.296875 9.703125 -0.15625 16.59375 -0.15625 
z
" id="CMSS17-103"/>
       <path d="M 38.5 39.703125 
C 38.5 40.390625 33.90625 42.40625 32.703125 42.796875 
C 29.40625 44 25.203125 44 24.09375 44 
C 11.09375 44 3.296875 32.703125 3.296875 21.296875 
C 3.296875 9.296875 12 -1 23.703125 -1 
C 30.40625 -1 35.203125 1.1875 39.09375 3.78125 
L 38.5 10.375 
C 34.203125 7.078125 29.203125 5.265625 23.796875 5.265625 
C 16 5.265625 10.90625 12.09375 10.90625 21.390625 
C 10.90625 28.609375 14.203125 37.71875 24.203125 37.71875 
C 29.703125 37.71875 32.796875 36.609375 37.40625 33.515625 
z
" id="CMSS17-99"/>
       <path d="M 11.296875 -25 
C 16.703125 -19.515625 29.09375 -6.765625 29.09375 24.703125 
C 29.09375 56.265625 16.703125 68.921875 11.296875 74.5 
L 5.203125 74.5 
C 17.5 61.75 21.5 43.921875 21.5 24.8125 
C 21.5 5.78125 17.703125 -12.15625 5.203125 -25 
z
" id="CMSS17-41"/>
      </defs>
      <use transform="scale(0.996264)" xlink:href="#CMSS17-110"/>
      <use transform="translate(48.204943 0)scale(0.996264)" xlink:href="#CMSS17-117"/>
      <use transform="translate(96.409886 0)scale(0.996264)" xlink:href="#CMSS17-109"/>
      <use transform="translate(170.639141 0)scale(0.996264)" xlink:href="#CMSS17-98"/>
      <use transform="translate(221.446523 0)scale(0.996264)" xlink:href="#CMSS17-101"/>
      <use transform="translate(263.085345 0)scale(0.996264)" xlink:href="#CMSS17-114"/>
      <use transform="translate(326.22423 0)scale(0.996264)" xlink:href="#CMSS17-111"/>
      <use transform="translate(373.067853 0)scale(0.996264)" xlink:href="#CMSS17-102"/>
      <use transform="translate(432.923625 0)scale(0.996264)" xlink:href="#CMSS17-101"/>
      <use transform="translate(474.562447 0)scale(0.996264)" xlink:href="#CMSS17-118"/>
      <use transform="translate(517.562589 0)scale(0.996264)" xlink:href="#CMSS17-97"/>
      <use transform="translate(562.484509 0)scale(0.996264)" xlink:href="#CMSS17-108"/>
      <use transform="translate(584.665232 0)scale(0.996264)" xlink:href="#CMSS17-117"/>
      <use transform="translate(632.870176 0)scale(0.996264)" xlink:href="#CMSS17-97"/>
      <use transform="translate(677.792096 0)scale(0.996264)" xlink:href="#CMSS17-116"/>
      <use transform="translate(711.623663 0)scale(0.996264)" xlink:href="#CMSS17-105"/>
      <use transform="translate(733.804386 0)scale(0.996264)" xlink:href="#CMSS17-111"/>
      <use transform="translate(780.648009 0)scale(0.996264)" xlink:href="#CMSS17-110"/>
      <use transform="translate(828.852953 0)scale(0.996264)" xlink:href="#CMSS17-115"/>
      <use transform="translate(895.995607 0)scale(0.996264)" xlink:href="#CMSS17-40"/>
      <use transform="translate(932.429521 0)scale(0.996264)" xlink:href="#CMSS17-108"/>
      <use transform="translate(954.610245 0)scale(0.996264)" xlink:href="#CMSS17-111"/>
      <use transform="translate(1001.453868 0)scale(0.996264)" xlink:href="#CMSS17-103"/>
      <use transform="translate(1079.526604 0)scale(0.996264)" xlink:href="#CMSS17-115"/>
      <use transform="translate(1115.440146 0)scale(0.996264)" xlink:href="#CMSS17-99"/>
      <use transform="translate(1157.078968 0)scale(0.996264)" xlink:href="#CMSS17-97"/>
      <use transform="translate(1202.000889 0)scale(0.996264)" xlink:href="#CMSS17-108"/>
      <use transform="translate(1224.181612 0)scale(0.996264)" xlink:href="#CMSS17-101"/>
      <use transform="translate(1265.820434 0)scale(0.996264)" xlink:href="#CMSS17-41"/>
     </g>
    </g>
   </g>
   <g id="matplotlib.axis_2">
    <g id="ytick_1">
     <g id="line2d_51">
      <defs>
       <path d="M 0 0 
L -3.5 0 
" id="m222d58be3b" style="stroke:#000000;stroke-width:0.8;"/>
      </defs>
      <g>
       <use style="stroke:#000000;stroke-width:0.8;" x="33.787336" xlink:href="#m222d58be3b" y="213.519557"/>
      </g>
     </g>
     <g id="text_8">
      <!-- $\mathdefault{0}$ -->
      <g transform="translate(22.553153 216.286958)scale(0.08 -0.08)">
       <use transform="scale(0.996264)" xlink:href="#CMR17-48"/>
      </g>
     </g>
    </g>
    <g id="ytick_2">
     <g id="line2d_52">
      <g>
       <use style="stroke:#000000;stroke-width:0.8;" x="33.787336" xlink:href="#m222d58be3b" y="177.67104"/>
      </g>
     </g>
     <g id="text_9">
      <!-- $\mathdefault{50}$ -->
      <g transform="translate(18.31897 180.438441)scale(0.08 -0.08)">
       <use transform="scale(0.996264)" xlink:href="#CMR17-53"/>
       <use transform="translate(45.690477 0)scale(0.996264)" xlink:href="#CMR17-48"/>
      </g>
     </g>
    </g>
    <g id="ytick_3">
     <g id="line2d_53">
      <g>
       <use style="stroke:#000000;stroke-width:0.8;" x="33.787336" xlink:href="#m222d58be3b" y="141.822524"/>
      </g>
     </g>
     <g id="text_10">
      <!-- $\mathdefault{100}$ -->
      <g transform="translate(14.084787 144.589925)scale(0.08 -0.08)">
       <use transform="scale(0.996264)" xlink:href="#CMR17-49"/>
       <use transform="translate(45.690477 0)scale(0.996264)" xlink:href="#CMR17-48"/>
       <use transform="translate(91.380954 0)scale(0.996264)" xlink:href="#CMR17-48"/>
      </g>
     </g>
    </g>
    <g id="ytick_4">
     <g id="line2d_54">
      <g>
       <use style="stroke:#000000;stroke-width:0.8;" x="33.787336" xlink:href="#m222d58be3b" y="105.974007"/>
      </g>
     </g>
     <g id="text_11">
      <!-- $\mathdefault{150}$ -->
      <g transform="translate(14.084787 108.741408)scale(0.08 -0.08)">
       <use transform="scale(0.996264)" xlink:href="#CMR17-49"/>
       <use transform="translate(45.690477 0)scale(0.996264)" xlink:href="#CMR17-53"/>
       <use transform="translate(91.380954 0)scale(0.996264)" xlink:href="#CMR17-48"/>
      </g>
     </g>
    </g>
    <g id="ytick_5">
     <g id="line2d_55">
      <g>
       <use style="stroke:#000000;stroke-width:0.8;" x="33.787336" xlink:href="#m222d58be3b" y="70.12549"/>
      </g>
     </g>
     <g id="text_12">
      <!-- $\mathdefault{200}$ -->
      <g transform="translate(14.084787 72.892891)scale(0.08 -0.08)">
       <use transform="scale(0.996264)" xlink:href="#CMR17-50"/>
       <use transform="translate(45.690477 0)scale(0.996264)" xlink:href="#CMR17-48"/>
       <use transform="translate(91.380954 0)scale(0.996264)" xlink:href="#CMR17-48"/>
      </g>
     </g>
    </g>
    <g id="ytick_6">
     <g id="line2d_56">
      <g>
       <use style="stroke:#000000;stroke-width:0.8;" x="33.787336" xlink:href="#m222d58be3b" y="34.276973"/>
      </g>
     </g>
     <g id="text_13">
      <!-- $\mathdefault{250}$ -->
      <g transform="translate(14.084787 37.044374)scale(0.08 -0.08)">
       <use transform="scale(0.996264)" xlink:href="#CMR17-50"/>
       <use transform="translate(45.690477 0)scale(0.996264)" xlink:href="#CMR17-53"/>
       <use transform="translate(91.380954 0)scale(0.996264)" xlink:href="#CMR17-48"/>
      </g>
     </g>
    </g>
    <g id="text_14">
     <!-- average solution cost -->
     <g transform="translate(8.535042 148.991564)rotate(-90)scale(0.08 -0.08)">
      <use transform="scale(0.996264)" xlink:href="#CMSS17-97"/>
      <use transform="translate(44.921921 0)scale(0.996264)" xlink:href="#CMSS17-118"/>
      <use transform="translate(87.922062 0)scale(0.996264)" xlink:href="#CMSS17-101"/>
      <use transform="translate(129.560884 0)scale(0.996264)" xlink:href="#CMSS17-114"/>
      <use transform="translate(161.470657 0)scale(0.996264)" xlink:href="#CMSS17-97"/>
      <use transform="translate(206.392578 0)scale(0.996264)" xlink:href="#CMSS17-103"/>
      <use transform="translate(253.236201 0)scale(0.996264)" xlink:href="#CMSS17-101"/>
      <use transform="translate(326.104136 0)scale(0.996264)" xlink:href="#CMSS17-115"/>
      <use transform="translate(362.017678 0)scale(0.996264)" xlink:href="#CMSS17-111"/>
      <use transform="translate(408.861301 0)scale(0.996264)" xlink:href="#CMSS17-108"/>
      <use transform="translate(431.042024 0)scale(0.996264)" xlink:href="#CMSS17-117"/>
      <use transform="translate(479.246968 0)scale(0.996264)" xlink:href="#CMSS17-116"/>
      <use transform="translate(513.078534 0)scale(0.996264)" xlink:href="#CMSS17-105"/>
      <use transform="translate(535.259257 0)scale(0.996264)" xlink:href="#CMSS17-111"/>
      <use transform="translate(582.102881 0)scale(0.996264)" xlink:href="#CMSS17-110"/>
      <use transform="translate(661.536937 0)scale(0.996264)" xlink:href="#CMSS17-99"/>
      <use transform="translate(703.175759 0)scale(0.996264)" xlink:href="#CMSS17-111"/>
      <use transform="translate(750.019382 0)scale(0.996264)" xlink:href="#CMSS17-115"/>
      <use transform="translate(785.932924 0)scale(0.996264)" xlink:href="#CMSS17-116"/>
     </g>
    </g>
   </g>
   <g id="line2d_57">
    <path clip-path="url(#pb9c6a90308)" d="M 43.471537 19.835142 
L 82.208341 37.232647 
L 120.945146 57.04444 
L 159.68195 76.153894 
L 198.418755 93.536766 
L 237.155559 144.017331 
" style="fill:none;stroke:#1f77b4;stroke-linecap:square;stroke-width:1.5;"/>
   </g>
   <g id="line2d_58">
    <path clip-path="url(#pb9c6a90308)" d="M 43.471537 23.24441 
L 82.208341 42.763561 
L 120.945146 62.004704 
L 159.68195 81.304375 
L 198.418755 101.789241 
L 237.155559 208.25202 
" style="fill:none;stroke:#ff7f0e;stroke-linecap:square;stroke-width:1.5;"/>
   </g>
   <g id="line2d_59">
    <path clip-path="url(#pb9c6a90308)" d="M 43.471537 23.844323 
L 82.208341 45.192481 
L 120.945146 64.140983 
L 159.68195 80.528876 
L 198.418755 114.826396 
L 237.155559 205.779204 
" style="fill:none;stroke:#2ca02c;stroke-linecap:square;stroke-width:1.5;"/>
   </g>
   <g id="line2d_60">
    <path clip-path="url(#pb9c6a90308)" d="M 43.471537 21.400772 
L 82.208341 39.96884 
L 120.945146 58.449116 
L 159.68195 70.842461 
L 198.418755 98.77504 
L 237.155559 181.592429 
" style="fill:none;stroke:#d62728;stroke-linecap:square;stroke-width:1.5;"/>
   </g>
   <g id="line2d_61">
    <path clip-path="url(#pb9c6a90308)" d="M 43.471537 22.337223 
L 82.208341 41.578365 
L 120.945146 60.234226 
L 159.68195 73.110428 
L 198.418755 102.008722 
L 237.155559 198.697293 
" style="fill:none;stroke:#9467bd;stroke-linecap:square;stroke-width:1.5;"/>
   </g>
   <g id="line2d_62">
    <path clip-path="url(#pb9c6a90308)" d="M 43.471537 22.849344 
L 82.208341 43.656116 
L 120.945146 62.61925 
L 159.68195 75.729564 
L 198.418755 107.261627 
L 237.155559 203.160067 
" style="fill:none;stroke:#8c564b;stroke-linecap:square;stroke-width:1.5;"/>
   </g>
   <g id="line2d_63">
    <path clip-path="url(#pb9c6a90308)" d="M 43.471537 24.400341 
L 82.208341 46.962959 
L 120.945146 66.745487 
L 159.68195 77.690259 
L 198.418755 108.973577 
L 237.155559 210.885789 
" style="fill:none;stroke:#e377c2;stroke-linecap:square;stroke-width:1.5;"/>
   </g>
   <g id="line2d_64">
    <path clip-path="url(#pb9c6a90308)" d="M 43.471537 12.899552 
L 82.208341 23.200513 
L 120.945146 35.067104 
L 159.68195 43.934125 
L 198.418755 50.299066 
L 237.155559 56.54695 
" style="fill:none;stroke:#7f7f7f;stroke-linecap:square;stroke-width:1.5;"/>
   </g>
   <g id="line2d_65">
    <path clip-path="url(#pb9c6a90308)" d="M 43.471537 14.09938 
L 82.208341 24.634454 
L 120.945146 39.120181 
L 159.68195 49.977161 
L 198.418755 54.732576 
L 237.155559 60.044009 
" style="fill:none;stroke:#bcbd22;stroke-linecap:square;stroke-width:1.5;"/>
   </g>
   <g id="line2d_66">
    <path clip-path="url(#pb9c6a90308)" d="M 43.471537 14.450549 
L 82.208341 25.89281 
L 120.945146 39.866416 
L 159.68195 49.845472 
L 198.418755 56.824959 
L 237.155559 63.497173 
" style="fill:none;stroke:#17becf;stroke-linecap:square;stroke-width:1.5;"/>
   </g>
   <g id="patch_3">
    <path d="M 33.787336 220.7851 
L 33.787336 3.00024 
" style="fill:none;stroke:#000000;stroke-linecap:square;stroke-linejoin:miter;stroke-width:0.8;"/>
   </g>
   <g id="patch_4">
    <path d="M 246.83976 220.7851 
L 246.83976 3.00024 
" style="fill:none;stroke:#000000;stroke-linecap:square;stroke-linejoin:miter;stroke-width:0.8;"/>
   </g>
   <g id="patch_5">
    <path d="M 33.787336 220.7851 
L 246.83976 220.7851 
" style="fill:none;stroke:#000000;stroke-linecap:square;stroke-linejoin:miter;stroke-width:0.8;"/>
   </g>
   <g id="patch_6">
    <path d="M 33.787336 3.00024 
L 246.83976 3.00024 
" style="fill:none;stroke:#000000;stroke-linecap:square;stroke-linejoin:miter;stroke-width:0.8;"/>
   </g>
   <g id="legend_1">
    <g id="patch_7">
     <path d="M 39.387336 216.7851 
L 105.488806 216.7851 
Q 107.088806 216.7851 107.088806 215.1851 
L 107.088806 96.701437 
Q 107.088806 95.101437 105.488806 95.101437 
L 39.387336 95.101437 
Q 37.787336 95.101437 37.787336 96.701437 
L 37.787336 215.1851 
Q 37.787336 216.7851 39.387336 216.7851 
z
" style="fill:#ffffff;opacity:0.8;stroke:#cccccc;stroke-linejoin:miter;"/>
    </g>
    <g id="line2d_67">
     <path d="M 40.987336 101.580187 
L 56.987336 101.580187 
" style="fill:none;stroke:#1f77b4;stroke-linecap:square;stroke-width:1.5;"/>
    </g>
    <g id="line2d_68"/>
    <g id="text_15">
     <!-- Cycle(0.75) -->
     <g transform="translate(63.387336 104.380187)scale(0.08 -0.08)">
      <defs>
       <path d="M 54.703125 11.15625 
C 48 6.671875 44.90625 5.375 36.796875 5.375 
C 22.796875 5.375 14.59375 20.359375 14.59375 34.046875 
C 14.59375 48.625 23 63 37.203125 63 
C 43.59375 63 47.796875 61.21875 52.90625 58.046875 
L 54.296875 65.890625 
C 49.5 68.28125 43.40625 69.375 37.296875 69.375 
C 18.09375 69.375 6.203125 51.8125 6.203125 34.046875 
C 6.203125 14.484375 20.296875 -1 36.296875 -1 
C 44.90625 -1 47.90625 -0.296875 55.296875 4.375 
z
" id="CMSS17-67"/>
       <path d="M 41.796875 43 
L 34 43 
C 25.5 20.21875 22.59375 10.96875 22.40625 5.984375 
L 22.296875 5.984375 
C 22 10.875 17.59375 22.8125 14.09375 31.359375 
L 9.40625 43 
L 1.296875 43 
L 19 0.203125 
C 17.90625 -2.78125 16.296875 -7.265625 15.796875 -8.265625 
C 13.59375 -13.828125 12.09375 -13.828125 10.5 -13.828125 
C 10.09375 -13.828125 6.90625 -13.828125 3.296875 -12.640625 
L 3.90625 -19.203125 
C 6.40625 -19.703125 8.90625 -20 10.703125 -20 
C 13.203125 -20 18.203125 -20 22.796875 -7.765625 
z
" id="CMSS17-121"/>
       <path d="M 43.09375 31.9375 
C 43.09375 37.578125 43 48.078125 38.90625 56.1875 
C 34.796875 64 28.203125 66.078125 23.5 66.078125 
C 16.703125 66.078125 10.90625 62.109375 7.90625 55.78125 
C 4.703125 49.15625 3.796875 42.328125 3.796875 31.9375 
C 3.796875 24.828125 4.09375 16.109375 7.703125 8.484375 
C 11.796875 0.078125 18.703125 -2 23.40625 -2 
C 29.59375 -2 35.59375 1.265625 39 8.09375 
C 42.5 15.21875 43.09375 23.03125 43.09375 31.9375 
z
M 23.40625 4.078125 
C 15.796875 4.078125 13.5 12.671875 12.796875 15.546875 
C 11.59375 20.46875 11.40625 25.21875 11.40625 33.03125 
C 11.40625 39.15625 11.40625 46.0625 13.296875 51.515625 
C 15.59375 57.828125 19.59375 60 23.40625 60 
C 30.796875 60 33.203125 52.6875 34 50.125 
C 35.5 44.890625 35.5 38.765625 35.5 33.03125 
C 35.5 23.84375 35.5 4.078125 23.40625 4.078125 
z
" id="CMSS17-48"/>
       <path d="M 17 7.96875 
L 9 7.96875 
L 9 0 
L 17 0 
z
" id="CMSS17-46"/>
       <path d="M 21.703125 59 
C 22.90625 59 24.09375 59 25.296875 59 
L 36.796875 59 
C 22.5 42.359375 14.296875 21.328125 14.296875 -0.5 
L 22.296875 -0.5 
C 22.296875 20.671875 29.296875 42.125 43 59.296875 
L 43 65.765625 
L 3.90625 65.765625 
L 3.90625 59 
z
" id="CMSS17-55"/>
       <path d="M 14.59375 58.625 
L 39.09375 58.625 
L 39.09375 65 
L 7.296875 65 
L 7.296875 27.828125 
L 14 27.828125 
C 15.796875 31.96875 19.5 35 24.296875 35 
C 28.796875 35 33.796875 31.078125 33.796875 19.78125 
C 33.796875 7.703125 26.703125 4.171875 21.5 4.171875 
C 15.09375 4.171875 9.203125 8 6.59375 13.296875 
L 3.40625 7.796875 
C 8 0.765625 15.5 -2 21.5 -2 
C 33.09375 -2 42.203125 7.765625 42.203125 19.578125 
C 42.203125 31.71875 34.09375 41.078125 24.40625 41.078125 
C 20.90625 41.078125 17.5 39.890625 14.59375 37.484375 
z
" id="CMSS17-53"/>
      </defs>
      <use transform="scale(0.996264)" xlink:href="#CMSS17-67"/>
      <use transform="translate(59.855772 0)scale(0.996264)" xlink:href="#CMSS17-121"/>
      <use transform="translate(102.855913 0)scale(0.996264)" xlink:href="#CMSS17-99"/>
      <use transform="translate(144.494735 0)scale(0.996264)" xlink:href="#CMSS17-108"/>
      <use transform="translate(166.675458 0)scale(0.996264)" xlink:href="#CMSS17-101"/>
      <use transform="translate(208.31428 0)scale(0.996264)" xlink:href="#CMSS17-40"/>
      <use transform="translate(244.748195 0)scale(0.996264)" xlink:href="#CMSS17-48"/>
      <use transform="translate(291.591818 0)scale(0.996264)" xlink:href="#CMSS17-46"/>
      <use transform="translate(317.616023 0)scale(0.996264)" xlink:href="#CMSS17-55"/>
      <use transform="translate(364.459647 0)scale(0.996264)" xlink:href="#CMSS17-53"/>
      <use transform="translate(411.30327 0)scale(0.996264)" xlink:href="#CMSS17-41"/>
     </g>
    </g>
    <g id="line2d_69">
     <path d="M 40.987336 113.651465 
L 56.987336 113.651465 
" style="fill:none;stroke:#ff7f0e;stroke-linecap:square;stroke-width:1.5;"/>
    </g>
    <g id="line2d_70"/>
    <g id="text_16">
     <!-- Cycle(0.5) -->
     <g transform="translate(63.387336 116.451465)scale(0.08 -0.08)">
      <use transform="scale(0.996264)" xlink:href="#CMSS17-67"/>
      <use transform="translate(59.855772 0)scale(0.996264)" xlink:href="#CMSS17-121"/>
      <use transform="translate(102.855913 0)scale(0.996264)" xlink:href="#CMSS17-99"/>
      <use transform="translate(144.494735 0)scale(0.996264)" xlink:href="#CMSS17-108"/>
      <use transform="translate(166.675458 0)scale(0.996264)" xlink:href="#CMSS17-101"/>
      <use transform="translate(208.31428 0)scale(0.996264)" xlink:href="#CMSS17-40"/>
      <use transform="translate(244.748195 0)scale(0.996264)" xlink:href="#CMSS17-48"/>
      <use transform="translate(291.591818 0)scale(0.996264)" xlink:href="#CMSS17-46"/>
      <use transform="translate(317.616023 0)scale(0.996264)" xlink:href="#CMSS17-53"/>
      <use transform="translate(364.459647 0)scale(0.996264)" xlink:href="#CMSS17-41"/>
     </g>
    </g>
    <g id="line2d_71">
     <path d="M 40.987336 125.722743 
L 56.987336 125.722743 
" style="fill:none;stroke:#2ca02c;stroke-linecap:square;stroke-width:1.5;"/>
    </g>
    <g id="line2d_72"/>
    <g id="text_17">
     <!-- Cycle(0.25) -->
     <g transform="translate(63.387336 128.522743)scale(0.08 -0.08)">
      <defs>
       <path d="M 25.796875 21.203125 
C 28.59375 24.078125 32.796875 27.5625 35.703125 31.046875 
C 38.5 34.4375 42.203125 39.234375 42.203125 46.203125 
C 42.203125 57.140625 34.796875 67 22.203125 67 
C 12.296875 67 6.59375 60.828125 3.90625 51.15625 
L 7.796875 45.765625 
C 10 54.84375 13.09375 60.625 20.90625 60.625 
C 29.5 60.625 34.296875 53.640625 34.296875 45.96875 
C 34.296875 36.796875 27.296875 29.703125 22 24.421875 
C 16.09375 18.546875 10.296875 12.5625 4.703125 6.375 
L 4.703125 0 
L 42.203125 0 
L 42.203125 6.765625 
L 25.203125 6.765625 
C 24 6.765625 22.796875 6.765625 21.59375 6.765625 
L 11.59375 6.765625 
L 11.59375 6.859375 
z
" id="CMSS17-50"/>
      </defs>
      <use transform="scale(0.996264)" xlink:href="#CMSS17-67"/>
      <use transform="translate(59.855772 0)scale(0.996264)" xlink:href="#CMSS17-121"/>
      <use transform="translate(102.855913 0)scale(0.996264)" xlink:href="#CMSS17-99"/>
      <use transform="translate(144.494735 0)scale(0.996264)" xlink:href="#CMSS17-108"/>
      <use transform="translate(166.675458 0)scale(0.996264)" xlink:href="#CMSS17-101"/>
      <use transform="translate(208.31428 0)scale(0.996264)" xlink:href="#CMSS17-40"/>
      <use transform="translate(244.748195 0)scale(0.996264)" xlink:href="#CMSS17-48"/>
      <use transform="translate(291.591818 0)scale(0.996264)" xlink:href="#CMSS17-46"/>
      <use transform="translate(317.616023 0)scale(0.996264)" xlink:href="#CMSS17-50"/>
      <use transform="translate(364.459647 0)scale(0.996264)" xlink:href="#CMSS17-53"/>
      <use transform="translate(411.30327 0)scale(0.996264)" xlink:href="#CMSS17-41"/>
     </g>
    </g>
    <g id="line2d_73">
     <path d="M 40.987336 137.794021 
L 56.987336 137.794021 
" style="fill:none;stroke:#d62728;stroke-linecap:square;stroke-width:1.5;"/>
    </g>
    <g id="line2d_74"/>
    <g id="text_18">
     <!-- Cycle(5) -->
     <g transform="translate(63.387336 140.594021)scale(0.08 -0.08)">
      <use transform="scale(0.996264)" xlink:href="#CMSS17-67"/>
      <use transform="translate(59.855772 0)scale(0.996264)" xlink:href="#CMSS17-121"/>
      <use transform="translate(102.855913 0)scale(0.996264)" xlink:href="#CMSS17-99"/>
      <use transform="translate(144.494735 0)scale(0.996264)" xlink:href="#CMSS17-108"/>
      <use transform="translate(166.675458 0)scale(0.996264)" xlink:href="#CMSS17-101"/>
      <use transform="translate(208.31428 0)scale(0.996264)" xlink:href="#CMSS17-40"/>
      <use transform="translate(244.748195 0)scale(0.996264)" xlink:href="#CMSS17-53"/>
      <use transform="translate(291.591818 0)scale(0.996264)" xlink:href="#CMSS17-41"/>
     </g>
    </g>
    <g id="line2d_75">
     <path d="M 40.987336 149.865299 
L 56.987336 149.865299 
" style="fill:none;stroke:#9467bd;stroke-linecap:square;stroke-width:1.5;"/>
    </g>
    <g id="line2d_76"/>
    <g id="text_19">
     <!-- Cycle(4) -->
     <g transform="translate(63.387336 152.665299)scale(0.08 -0.08)">
      <defs>
       <path d="M 35.203125 17 
L 44.296875 17 
L 44.296875 23.078125 
L 35.203125 23.078125 
L 35.203125 65.5 
L 26.40625 65.5 
L 2.59375 23.078125 
L 2.59375 17 
L 27.296875 17 
L 27.296875 0 
L 35.203125 0 
z
M 10.296875 23.078125 
C 16.09375 33.234375 27.59375 53.734375 27.59375 60.703125 
L 27.59375 23.078125 
z
" id="CMSS17-52"/>
      </defs>
      <use transform="scale(0.996264)" xlink:href="#CMSS17-67"/>
      <use transform="translate(59.855772 0)scale(0.996264)" xlink:href="#CMSS17-121"/>
      <use transform="translate(102.855913 0)scale(0.996264)" xlink:href="#CMSS17-99"/>
      <use transform="translate(144.494735 0)scale(0.996264)" xlink:href="#CMSS17-108"/>
      <use transform="translate(166.675458 0)scale(0.996264)" xlink:href="#CMSS17-101"/>
      <use transform="translate(208.31428 0)scale(0.996264)" xlink:href="#CMSS17-40"/>
      <use transform="translate(244.748195 0)scale(0.996264)" xlink:href="#CMSS17-52"/>
      <use transform="translate(291.591818 0)scale(0.996264)" xlink:href="#CMSS17-41"/>
     </g>
    </g>
    <g id="line2d_77">
     <path d="M 40.987336 161.936577 
L 56.987336 161.936577 
" style="fill:none;stroke:#8c564b;stroke-linecap:square;stroke-width:1.5;"/>
    </g>
    <g id="line2d_78"/>
    <g id="text_20">
     <!-- Cycle(3) -->
     <g transform="translate(63.387336 164.736577)scale(0.08 -0.08)">
      <defs>
       <path d="M 15.703125 31.640625 
L 22.5 31.640625 
C 31.90625 31.640625 34.59375 23.546875 34.59375 17.90625 
C 34.59375 10.203125 30.203125 4.171875 23 4.171875 
C 17.40625 4.171875 9.5 6.9375 5 14.25 
C 4.296875 10.796875 4.296875 10.59375 3.90625 8.21875 
C 8.59375 1.375 16.203125 -2 23.203125 -2 
C 34.59375 -2 43 7.390625 43 17.78125 
C 43 25.59375 37.5 32.140625 30 34.609375 
C 36 37.875 40.40625 44 40.40625 51.140625 
C 40.40625 59.453125 32.703125 66.078125 23.296875 66.078125 
C 14.703125 66.078125 8 60.8125 5.203125 55.15625 
C 5.90625 54.1875 7.703125 51.3125 8.59375 49.828125 
C 10.796875 55.65625 16.5 60 23.203125 60 
C 28.796875 60 32.5 56.359375 32.5 51.109375 
C 32.5 45.671875 29 39.734375 23.09375 38.359375 
C 22.703125 38.359375 16.5 37.765625 15.703125 37.671875 
z
" id="CMSS17-51"/>
      </defs>
      <use transform="scale(0.996264)" xlink:href="#CMSS17-67"/>
      <use transform="translate(59.855772 0)scale(0.996264)" xlink:href="#CMSS17-121"/>
      <use transform="translate(102.855913 0)scale(0.996264)" xlink:href="#CMSS17-99"/>
      <use transform="translate(144.494735 0)scale(0.996264)" xlink:href="#CMSS17-108"/>
      <use transform="translate(166.675458 0)scale(0.996264)" xlink:href="#CMSS17-101"/>
      <use transform="translate(208.31428 0)scale(0.996264)" xlink:href="#CMSS17-40"/>
      <use transform="translate(244.748195 0)scale(0.996264)" xlink:href="#CMSS17-51"/>
      <use transform="translate(291.591818 0)scale(0.996264)" xlink:href="#CMSS17-41"/>
     </g>
    </g>
    <g id="line2d_79">
     <path d="M 40.987336 174.007855 
L 56.987336 174.007855 
" style="fill:none;stroke:#e377c2;stroke-linecap:square;stroke-width:1.5;"/>
    </g>
    <g id="line2d_80"/>
    <g id="text_21">
     <!-- Swap -->
     <g transform="translate(63.387336 176.807855)scale(0.08 -0.08)">
      <defs>
       <path d="M 43.703125 65.140625 
C 39.296875 67.71875 34.5 70 26.40625 70 
C 13.5 70 5.203125 60.609375 5.203125 51.03125 
C 5.203125 47.265625 6.296875 43.015625 10.203125 38.671875 
C 14.09375 34.3125 18.5 33.140625 24.09375 31.765625 
C 26.40625 31.15625 30.296875 30.0625 31 29.78125 
C 36.59375 27.609375 39.296875 22.5625 39.296875 17.8125 
C 39.296875 11.59375 34.40625 4.96875 25.703125 4.96875 
C 22.703125 4.96875 13.90625 4.96875 5.59375 12.796875 
L 4.203125 4.96875 
C 12.40625 -1 21.296875 -2 25.796875 -2 
C 38.09375 -2 46.90625 7.625 46.90625 18.53125 
C 46.90625 22.5 45.703125 27.546875 41.5 32.203125 
C 37.40625 36.671875 33.796875 37.65625 25.59375 39.828125 
C 20.90625 41.03125 17.90625 41.828125 15.40625 44.890625 
C 13.703125 47.078125 12.796875 49.15625 12.796875 51.828125 
C 12.796875 57.390625 17.59375 63.4375 26.40625 63.4375 
C 30.796875 63.4375 36.5 62.53125 42.296875 57.1875 
z
" id="CMSS17-83"/>
       <path d="M 62.703125 43 
L 55.09375 43 
L 49.796875 25.015625 
C 48.703125 21.21875 45.59375 10.703125 45.203125 5.796875 
L 45.09375 5.796875 
C 44.90625 8.8125 43.203125 16 40.40625 25.515625 
L 35.296875 43 
L 28.40625 43 
L 23.40625 25.90625 
C 20.90625 17.203125 19 9.796875 18.796875 5.796875 
L 18.703125 5.796875 
C 18.296875 11.703125 14.203125 25.515625 13.59375 27.703125 
L 9.09375 43 
L 1.296875 43 
L 14.296875 0 
L 21.90625 0 
C 27.09375 17.125 31.09375 30.359375 31.40625 37.03125 
C 31.59375 33.75 33.296875 26.671875 34.296875 23.1875 
L 40.90625 0 
L 49.703125 0 
z
" id="CMSS17-119"/>
       <path d="M 15.09375 5.203125 
C 18.40625 2.015625 22.90625 -0.078125 27.703125 -0.078125 
C 37 -0.078125 45 9.421875 45 22.0625 
C 45 33.734375 39 44 30.40625 44 
C 25.40625 44 19.40625 42.21875 14.90625 38.625 
L 14.90625 43.203125 
L 7.5 43.203125 
L 7.5 -19 
L 15.09375 -19 
z
M 15.09375 32.8125 
C 15.90625 34 19.296875 37.734375 24.796875 37.734375 
C 31.796875 37.734375 37.40625 30.625 37.40625 22.0625 
C 37.40625 12.296875 30.59375 6 23.90625 6 
C 21.90625 6 19.796875 6.484375 17.796875 8.171875 
C 15.09375 10.53125 15.09375 12 15.09375 13.390625 
z
" id="CMSS17-112"/>
      </defs>
      <use transform="scale(0.996264)" xlink:href="#CMSS17-83"/>
      <use transform="translate(52.048516 0)scale(0.996264)" xlink:href="#CMSS17-119"/>
      <use transform="translate(113.265607 0)scale(0.996264)" xlink:href="#CMSS17-97"/>
      <use transform="translate(158.187528 0)scale(0.996264)" xlink:href="#CMSS17-112"/>
     </g>
    </g>
    <g id="line2d_81">
     <path d="M 40.987336 185.750355 
L 56.987336 185.750355 
" style="fill:none;stroke:#7f7f7f;stroke-linecap:square;stroke-width:1.5;"/>
    </g>
    <g id="line2d_82"/>
    <g id="text_22">
     <!-- Insertion -->
     <g transform="translate(63.387336 188.550355)scale(0.08 -0.08)">
      <defs>
       <path d="M 17.09375 69 
L 8.703125 69 
L 8.703125 0 
L 17.09375 0 
z
" id="CMSS17-73"/>
      </defs>
      <use transform="scale(0.996264)" xlink:href="#CMSS17-73"/>
      <use transform="translate(25.783926 0)scale(0.996264)" xlink:href="#CMSS17-110"/>
      <use transform="translate(73.988869 0)scale(0.996264)" xlink:href="#CMSS17-115"/>
      <use transform="translate(109.902411 0)scale(0.996264)" xlink:href="#CMSS17-101"/>
      <use transform="translate(151.541233 0)scale(0.996264)" xlink:href="#CMSS17-114"/>
      <use transform="translate(183.451005 0)scale(0.996264)" xlink:href="#CMSS17-116"/>
      <use transform="translate(217.282572 0)scale(0.996264)" xlink:href="#CMSS17-105"/>
      <use transform="translate(239.463295 0)scale(0.996264)" xlink:href="#CMSS17-111"/>
      <use transform="translate(286.306919 0)scale(0.996264)" xlink:href="#CMSS17-110"/>
     </g>
    </g>
    <g id="line2d_83">
     <path d="M 40.987336 197.492855 
L 56.987336 197.492855 
" style="fill:none;stroke:#bcbd22;stroke-linecap:square;stroke-width:1.5;"/>
    </g>
    <g id="line2d_84"/>
    <g id="text_23">
     <!-- Reversal -->
     <g transform="translate(63.387336 200.292855)scale(0.08 -0.08)">
      <defs>
       <path d="M 39.40625 32.953125 
L 39.59375 33.046875 
C 55.203125 38.421875 55.296875 49.171875 55.296875 51.0625 
C 55.296875 60.515625 45.703125 69.578125 31.296875 69.578125 
L 8.90625 69.578125 
L 8.90625 0.5 
L 17.09375 0.5 
L 17.09375 32 
L 31.796875 32 
L 49.5 0.5 
L 57.90625 0.5 
z
M 17.09375 38.078125 
L 17.09375 64 
L 30.203125 64 
C 42.90625 64 47.40625 56.828125 47.40625 51.046875 
C 47.40625 45.65625 43.40625 38.078125 30.203125 38.078125 
z
" id="CMSS17-82"/>
      </defs>
      <use transform="scale(0.996264)" xlink:href="#CMSS17-82"/>
      <use transform="translate(60.416155 0)scale(0.996264)" xlink:href="#CMSS17-101"/>
      <use transform="translate(102.054977 0)scale(0.996264)" xlink:href="#CMSS17-118"/>
      <use transform="translate(145.055119 0)scale(0.996264)" xlink:href="#CMSS17-101"/>
      <use transform="translate(186.693941 0)scale(0.996264)" xlink:href="#CMSS17-114"/>
      <use transform="translate(218.603713 0)scale(0.996264)" xlink:href="#CMSS17-115"/>
      <use transform="translate(254.517255 0)scale(0.996264)" xlink:href="#CMSS17-97"/>
      <use transform="translate(299.439176 0)scale(0.996264)" xlink:href="#CMSS17-108"/>
     </g>
    </g>
    <g id="line2d_85">
     <path d="M 40.987336 209.235355 
L 56.987336 209.235355 
" style="fill:none;stroke:#17becf;stroke-linecap:square;stroke-width:1.5;"/>
    </g>
    <g id="line2d_86"/>
    <g id="text_24">
     <!-- Scramble -->
     <g transform="translate(63.387336 212.035355)scale(0.08 -0.08)">
      <use transform="scale(0.996264)" xlink:href="#CMSS17-83"/>
      <use transform="translate(52.048516 0)scale(0.996264)" xlink:href="#CMSS17-99"/>
      <use transform="translate(93.687338 0)scale(0.996264)" xlink:href="#CMSS17-114"/>
      <use transform="translate(125.597111 0)scale(0.996264)" xlink:href="#CMSS17-97"/>
      <use transform="translate(170.519031 0)scale(0.996264)" xlink:href="#CMSS17-109"/>
      <use transform="translate(244.748286 0)scale(0.996264)" xlink:href="#CMSS17-98"/>
      <use transform="translate(292.953229 0)scale(0.996264)" xlink:href="#CMSS17-108"/>
      <use transform="translate(315.133952 0)scale(0.996264)" xlink:href="#CMSS17-101"/>
     </g>
    </g>
   </g>
  </g>
 </g>
 <defs>
  <clipPath id="pb9c6a90308">
   <rect height="217.78486" width="213.052424" x="33.787336" y="3.00024"/>
  </clipPath>
 </defs>
</svg>
